<?xml version="1.0" encoding="utf-8"?>
<!-- Generator: Adobe Illustrator 16.0.0, SVG Export Plug-In . SVG Version: 6.00 Build 0)  -->
<!DOCTYPE svg PUBLIC "-//W3C//DTD SVG 1.1//EN" "http://www.w3.org/Graphics/SVG/1.1/DTD/svg11.dtd">
<svg version="1.1" id="Layer_1" xmlns="http://www.w3.org/2000/svg" xmlns:xlink="http://www.w3.org/1999/xlink" x="0px" y="0px"
	 width="200px" height="200px" viewBox="0 0 200 200" enable-background="new 0 0 200 200" xml:space="preserve">
<g>
	
		<rect x="57" y="119" fill="none" stroke="#000000" stroke-width="2" stroke-linecap="round" stroke-linejoin="round" stroke-miterlimit="10" width="88" height="62"/>
	
		<rect x="86" y="165" fill="none" stroke="#000000" stroke-width="2" stroke-linecap="round" stroke-linejoin="round" stroke-miterlimit="10" width="30" height="16"/>
	
		<circle fill="none" stroke="#000000" stroke-width="1.5132" stroke-linecap="round" stroke-linejoin="round" stroke-miterlimit="10" cx="79.593" cy="147.13" r="11.932"/>
	
		<circle fill="none" stroke="#000000" stroke-width="1.5132" stroke-linecap="round" stroke-linejoin="round" stroke-miterlimit="10" cx="123.06" cy="147.13" r="11.932"/>
	
		<circle fill="none" stroke="#000000" stroke-width="1.5132" stroke-linecap="round" stroke-linejoin="round" stroke-miterlimit="10" cx="41.815" cy="92.634" r="11.437"/>
	
		<line fill="none" stroke="#000000" stroke-width="2" stroke-linecap="round" stroke-linejoin="round" stroke-miterlimit="10" x1="37" y1="103" x2="37" y2="138"/>
	
		<line fill="none" stroke="#000000" stroke-width="2" stroke-linecap="round" stroke-linejoin="round" stroke-miterlimit="10" x1="46" y1="103" x2="46" y2="131"/>
	<path fill="none" stroke="#000000" stroke-width="2" stroke-linecap="round" stroke-linejoin="round" stroke-miterlimit="10" d="
		M57,172.677c-13,0-23.83-10.042-23.83-22.428c0-10.021,10.83-22.427,23.83-22.427C57,172.677,57,127.822,57,172.677z"/>
	
		<circle fill="none" stroke="#000000" stroke-width="1.5132" stroke-linecap="round" stroke-linejoin="round" stroke-miterlimit="10" cx="160.553" cy="91.709" r="11.437"/>
	
		<line fill="none" stroke="#000000" stroke-width="2" stroke-linecap="round" stroke-linejoin="round" stroke-miterlimit="10" x1="164" y1="102" x2="164" y2="137"/>
	
		<line fill="none" stroke="#000000" stroke-width="2" stroke-linecap="round" stroke-linejoin="round" stroke-miterlimit="10" x1="156" y1="102" x2="156" y2="130"/>
	<path fill="none" stroke="#000000" stroke-width="2" stroke-linecap="round" stroke-linejoin="round" stroke-miterlimit="10" d="
		M145,171.752c13,0,23.83-10.041,23.83-22.428c0-12.386-10.83-22.427-23.83-22.427C145,171.752,145,126.897,145,171.752z"/>
	
		<line fill="none" stroke="#000000" stroke-width="2" stroke-linecap="round" stroke-linejoin="round" stroke-miterlimit="10" x1="103" y1="18" x2="103" y2="28"/>
	
		<line fill="none" stroke="#000000" stroke-width="1.5132" stroke-linecap="round" stroke-linejoin="round" stroke-miterlimit="10" x1="81.064" y1="23.99" x2="86.653" y2="32.821"/>
	
		<line fill="none" stroke="#000000" stroke-width="1.5132" stroke-linecap="round" stroke-linejoin="round" stroke-miterlimit="10" x1="64.448" y1="39.805" x2="73.761" y2="45.057"/>
	
		<line fill="none" stroke="#000000" stroke-width="2" stroke-linecap="round" stroke-linejoin="round" stroke-miterlimit="10" x1="58" y1="63" x2="69" y2="63"/>
	
		<line fill="none" stroke="#000000" stroke-width="1.5132" stroke-linecap="round" stroke-linejoin="round" stroke-miterlimit="10" x1="64.448" y1="83.908" x2="73.761" y2="78.657"/>
	
		<line fill="none" stroke="#000000" stroke-width="1.5132" stroke-linecap="round" stroke-linejoin="round" stroke-miterlimit="10" x1="77.134" y1="84.817" x2="131.249" y2="84.664"/>
	
		<line fill="none" stroke="#000000" stroke-width="1.5132" stroke-linecap="round" stroke-linejoin="round" stroke-miterlimit="10" x1="130.619" y1="95.145" x2="77.134" y2="95.3"/>
	
		<line fill="none" stroke="#000000" stroke-width="2" stroke-linecap="round" stroke-linejoin="round" stroke-miterlimit="10" x1="84" y1="80" x2="84" y2="105"/>
	
		<line fill="none" stroke="#000000" stroke-width="2" stroke-linecap="round" stroke-linejoin="round" stroke-miterlimit="10" x1="84" y1="105" x2="123" y2="105"/>
	
		<line fill="none" stroke="#000000" stroke-width="2" stroke-linecap="round" stroke-linejoin="round" stroke-miterlimit="10" x1="123" y1="105" x2="123" y2="80"/>
	
		<circle fill="none" stroke="#000000" stroke-width="1.5132" stroke-linecap="round" stroke-linejoin="round" stroke-miterlimit="10" cx="104.194" cy="61.696" r="8.501"/>
	
		<line fill="none" stroke="#000000" stroke-width="2" stroke-linecap="round" stroke-linejoin="round" stroke-miterlimit="10" x1="104" y1="70" x2="104" y2="84"/>
	
		<path fill="none" stroke="#000000" stroke-width="1.5132" stroke-linecap="round" stroke-linejoin="round" stroke-miterlimit="10" d="
		M104.194,86.766"/>
	
		<path fill="none" stroke="#000000" stroke-width="1.5132" stroke-linecap="round" stroke-linejoin="round" stroke-miterlimit="10" d="
		M84.131,80.193c-4.287-4.431-7.15-12.095-7.15-18.497c0-13.845,12.184-25.068,27.213-25.068s27.213,11.224,27.213,25.068
		c0,7.217-3.309,13.721-8.606,18.295"/>
	
		<line fill="none" stroke="#000000" stroke-width="1.5132" stroke-linecap="round" stroke-linejoin="round" stroke-miterlimit="10" x1="126.251" y1="23.066" x2="120.662" y2="31.896"/>
	
		<line fill="none" stroke="#000000" stroke-width="1.5132" stroke-linecap="round" stroke-linejoin="round" stroke-miterlimit="10" x1="142.868" y1="38.88" x2="133.555" y2="44.132"/>
	
		<line fill="none" stroke="#000000" stroke-width="2" stroke-linecap="round" stroke-linejoin="round" stroke-miterlimit="10" x1="149" y1="62" x2="138" y2="62"/>
	
		<line fill="none" stroke="#000000" stroke-width="1.5132" stroke-linecap="round" stroke-linejoin="round" stroke-miterlimit="10" x1="142.868" y1="82.983" x2="133.555" y2="77.732"/>
</g>
</svg>
