<?xml version="1.0" encoding="utf-8"?>
<!-- Generator: Adobe Illustrator 16.0.0, SVG Export Plug-In . SVG Version: 6.00 Build 0)  -->
<!DOCTYPE svg PUBLIC "-//W3C//DTD SVG 1.1//EN" "http://www.w3.org/Graphics/SVG/1.1/DTD/svg11.dtd">
<svg version="1.1" id="Layer_1" xmlns="http://www.w3.org/2000/svg" xmlns:xlink="http://www.w3.org/1999/xlink" x="0px" y="0px"
	 width="408.039px" height="320.5px" viewBox="0 0 408.039 320.5" enable-background="new 0 0 408.039 320.5" xml:space="preserve">
<g>
	<g>
		<g>
			<path fill="#29ABE2" d="M269.59,184.053c0.396,0.337,0.536,0.291,1.051-0.321l1.497-1.778c0.409-0.486,0.333-0.694-0.662-1.664
				c0.533-0.095,1.378-0.591,1.843-0.934c1.56,1.643,1.587,2.478,0.499,3.769l-1.789,2.125c-1.486,1.764-2.308,1.754-3.8,0.48
				l-1.829-1.562l1.635-1.732l-0.827,0.203l0.012-1.328c-0.375-0.152-0.798-0.275-1.112-0.353c0.319-0.348,0.635-0.723,0.751-0.862
				c0.091-0.138,0.082-0.216-0.035-0.317l-1.668-1.424l-2.538,3.014l-3.834-3.273l2.175-2.583c-0.143-0.218-0.312-0.435-0.468-0.639
				l-2.971,3.528l1.244,1.062c1.858,1.586,4.367,4.134,5.003,6.873c-0.53,0.001-1.65,0.167-2.109,0.325
				c-0.586-2.411-2.629-4.346-4.194-5.683l-2.591-2.212l9.649-11.458l1.361,1.163l-3.778,4.486l0.328,0.805l2.749-3.264l3.834,3.273
				l-2.526,3l1.712,1.461c0.995,0.85,0.934,1.251,0.555,2.121c0.737-0.158,1.468-0.25,2.001-0.226l0.027,2.029
				c-0.63-0.06-1.571,0.043-2.479,0.225c0.026,0.118,0.003,0.265-0.12,0.471L269.59,184.053z M261.025,177.408l0.483,0.413l3.79-4.5
				l-0.483-0.413L261.025,177.408z M262.43,178.607l0.482,0.412l3.79-4.5l-0.482-0.412L262.43,178.607z M265.558,179.703
				c0.067,0.129,0.021,0.304-0.134,0.458c0.173,1.198,0.156,2.831-0.083,4.131c-0.5,0.026-1.363,0.125-1.864,0.271
				c0.29-1.209,0.362-2.699,0.122-3.787L265.558,179.703z M266.549,184.918c0.943,1.449,1.675,3.03,1.521,4.736l-2.172,0.486
				c0.17-1.455-0.288-2.944-1.156-4.211L266.549,184.918z M272.174,176.207c-1.006,0-2.752,0.372-4.043,0.798l0.148-1.879
				c1.232-0.477,2.943-0.925,4.011-0.969L272.174,176.207z M276.596,179.29c-1.208-0.387-3.294-0.449-4.982-0.267l0.342-2.048
				c1.641-0.247,3.704-0.276,4.977,0.094L276.596,179.29z"/>
			<path fill="#29ABE2" d="M274.486,168.472c-1.298,1.542-2.18,1.456-3.688,0.169l-1.889-1.612l-0.76,0.903l-1.478-1.262l2.105-2.5
				l-1.39-1.187l1.731-1.817c0.134,0.139,0.126,0.298-0.042,0.586l1.01,0.862l2.035-2.417l1.478,1.262l-3.403,4.042l1.903,1.624
				c0.424,0.362,0.628,0.418,0.921,0.071l1.521-1.806c0.281-0.333,0.684-0.872,0.845-1.212c0.305,0.236,0.734,0.531,1.109,0.804
				c-0.135-1.93-1.704-3.771-3.948-5.735l-0.673-0.575l3.661-4.347l0.771-0.797l0.434,0.441c3.757,3.423,5.017,4.737,5.204,5.47
				c0.267,0.968-0.31,1.623-1.427,2.889c-0.403-0.297-1.118-0.644-1.62-0.763c0.417-0.407,0.76-0.783,0.924-0.978
				c0.339-0.403,0.142-0.738-0.326-1.257l-2.105,2.5c0.697,1.145,1.101,2.277,1.087,3.459c-0.372-0.007-1.053,0.056-1.574,0.136
				c-0.161,0.34-0.521,0.797-0.861,1.2L274.486,168.472z M283.465,168.593l4.667-5.542l1.449,1.237l-10.702,12.709l-1.449-1.237
				l4.608-5.473l-0.761-0.649l-3.111,3.695l-1.405-1.2l3.111-3.695l-0.731-0.625l-3.649,4.333l-1.434-1.224l8.854-10.514
				l1.434,1.224l-3.778,4.486l0.731,0.625l3.205-3.806l1.405,1.2l-3.205,3.806L283.465,168.593z M276.169,156.108l-1.825,2.167
				l0.579,0.566l1.836-2.181L276.169,156.108z M275.957,159.915c0.185,0.229,0.366,0.431,0.536,0.647l1.953-2.319l-0.594-0.579
				L275.957,159.915z"/>
		</g>
		<g>
			<path fill="#29ABE2" d="M280.163,215.427l0.91-1.198l1.174,1.204c-0.928,1.432-1.936,2.913-2.612,3.873
				c0.069,0.14,0.058,0.297-0.035,0.41l-1.813-1.32c0.349-0.405,0.783-0.936,1.24-1.518l-2.377-3.795l-1.285,0.806l-0.947-1.512
				l1.285-0.806l-1.912-3.051l1.876-1.028c0.069,0.141,0.02,0.265-0.191,0.453l1.696,2.706l1.232-0.772l0.947,1.512l-1.232,0.772
				L280.163,215.427z M285.103,215.123c0.49,0.783,0.683,0.828,1.509,0.311l2.57-1.61c0.721-0.452,0.661-0.84-0.09-2.271
				c0.491,0.025,1.265-0.109,1.734-0.292c0.984,2.007,0.91,2.939-0.624,3.901l-2.832,1.774c-1.809,1.134-2.614,0.955-3.762-0.875
				l-2.228-3.556l-0.74,1.092l-1.479-1.05l1.181-1.7l-2.145-3.422l1.902-1.045c0.062,0.127,0.02,0.264-0.192,0.452l1.521,2.428
				l0.802-1.167l-2.261-3.608l1.868-1.04c0.07,0.14,0.028,0.277-0.191,0.452l1.662,2.652l0.954-1.391l0.174-0.423l1.536-0.316
				c0.016,0.083-0.013,0.212-0.072,0.322c1.596,2.547,2.571,4.19,2.859,4.767c0.583,1.077,0.119,1.736-1.244,2.59
				c-0.297-0.386-0.789-0.909-1.167-1.134c0.231-0.127,0.532-0.316,0.65-0.39c0.157-0.099,0.211-0.187,0.114-0.458
				c-0.107-0.229-0.717-1.232-1.931-3.17l-0.852,1.236l3.01,4.803l-1.469,0.92l-2.602-4.152l-0.802,1.167L285.103,215.123z"/>
			<path fill="#29ABE2" d="M299.808,197.133l-6.438,4.034c0.318,0.595,0.632,1.212,0.927,1.858l3.907-2.448l0.316-0.253l1.031-0.424
				c0.062,0.128,0.16,0.343,0.225,0.506c2.104,3.91,2.768,5.583,2.596,6.502c-0.139,0.827-0.555,1.272-1.905,2.118
				c-0.419,0.263-0.899,0.545-1.388,0.814c-0.309-0.435-0.96-0.95-1.544-1.212c0.976-0.482,1.906-1.065,2.287-1.304
				c0.288-0.181,0.455-0.322,0.534-0.575c0.158-0.506-0.338-1.82-1.684-4.376l-3.684,2.309c0.886,2.492,1.167,5.272-0.634,8.341
				c-0.498-0.298-1.326-0.572-1.954-0.642c2.519-3.906,0.905-7.181-0.746-10.137l-3.789,2.374l-0.956-1.526l5.074-3.179
				l-1.372-2.188l2.06-1.142c0.07,0.141,0.015,0.286-0.188,0.487l1.139,1.816l5.231-3.278L299.808,197.133z"/>
		</g>
		<g>
			<path fill="#29ABE2" d="M304.854,179.203c0.751-0.471,1.118-0.718,1.523-1.04c0.14,0.304,0.43,0.821,0.661,1.189l2.647,4.225
				c0.299,0.478,0.495,0.763,0.7,1.01c-0.422,0.213-0.672,0.353-1.241,0.709l-2.844,1.782l0.905,1.444
				c0.092,0.147,0.194,0.202,0.329,0.203c0.231-0.008,0.79-0.272,1.456-0.689c0.133-0.083,0.303-0.189,0.484-0.303
				c0.097-0.061,0.206-0.129,0.291-0.182c1.21-0.758,1.566-1.051,1.665-1.352c0.107-0.339-0.074-0.924-0.679-2.131
				c0.096-0.009,0.147-0.007,0.282-0.007c0.391-0.023,0.498-0.04,0.754-0.115c0.592,1.59,0.689,2.042,0.507,2.531
				c-0.213,0.628-0.64,0.997-2.298,2.035c-1.452,0.91-2.151,1.247-2.601,1.256c-0.359,0.02-0.581-0.148-0.903-0.662l-0.967-1.543
				l-3.086,1.934l0.613,0.979l-0.823,0.516c-0.174-0.385-0.373-0.755-0.641-1.184l-3.023-4.824c-0.33-0.526-0.622-0.94-0.939-1.338
				c0.41-0.207,0.849-0.446,1.224-0.682l2.724-1.706l-0.369-0.589c-0.253-0.403-0.5-0.744-0.778-1.081l0.92-0.576
				c0.154,0.38,0.303,0.645,0.633,1.171l0.369,0.589L304.854,179.203z M298.934,183.901l1.305,2.081l3.086-1.934l-1.305-2.081
				L298.934,183.901z M300.676,186.681l1.319,2.106l3.086-1.934l-1.319-2.106L300.676,186.681z M304.099,183.563l3.256-2.04
				l-1.304-2.081l-3.256,2.04L304.099,183.563z M305.856,186.368l3.256-2.04l-1.32-2.106l-3.256,2.04L305.856,186.368z"/>
			<path fill="#29ABE2" d="M313.335,181.017c0.443,0.813,0.928,1.857,1.159,2.495c0.319,0.858,0.424,1.458,0.448,2.329
				c-0.354-0.135-0.663-0.198-0.993-0.214c-0.013-0.827-0.13-1.418-0.453-2.255c-0.515-1.333-1.576-3.242-3.602-6.475
				c-0.683-1.09-1.022-1.577-1.347-1.987c0.406-0.187,0.679-0.341,1.115-0.614l1.077-0.675c0.4-0.25,0.646-0.421,0.918-0.66
				c0.148,0.316,0.343,0.655,0.727,1.267l5.209,8.314c0.491,0.784,0.392,1.135-0.456,1.666c-0.302,0.189-0.612,0.368-0.962,0.535
				c-0.188-0.273-0.368-0.451-0.661-0.677c0.466-0.172,0.791-0.325,1.154-0.553c0.314-0.197,0.349-0.303,0.157-0.61l-1.833-2.926
				L313.335,181.017z M311.373,174.198l-1.549,0.971l1.158,1.85l0.21,0.362l1.562-0.978L311.373,174.198z M311.609,178.074
				c0.269,0.429,0.456,0.753,0.586,0.962c0.292,0.465,0.54,0.889,0.754,1.284l1.622-1.016l-1.389-2.216L311.609,178.074z
				 M318.24,170.151c0.509-0.318,0.791-0.513,1.052-0.744l0.498,0.795c-0.313,0.146-0.631,0.311-1.091,0.599l-4.648,2.912
				c-0.46,0.288-0.743,0.482-1.015,0.72l-0.506-0.808c0.292-0.098,0.591-0.267,1.111-0.593l1.948-1.221
				c-0.424-0.382-0.67-0.586-1.234-0.949l0.548-0.685c0.642,0.433,0.923,0.666,1.437,1.164L318.24,170.151z M320.435,171.742
				c0.155,0.329,0.274,0.545,0.565,1.01l3.507,5.596c0.33,0.527,0.479,0.741,0.704,0.992l-0.811,0.508l-0.438-0.698l-4.466,2.798
				c-0.387,0.243-0.658,0.43-0.925,0.648c-0.156-0.329-0.297-0.581-0.527-0.948l-3.184-5.082c-0.284-0.453-0.441-0.678-0.666-0.929
				l0.848-0.531c0.081,0.239,0.238,0.516,0.507,0.943l3.329,5.314l4.647-2.912l-3.307-5.277c-0.229-0.367-0.461-0.684-0.644-0.893
				L320.435,171.742z M318.475,171.761c0.019,0.191,0.019,0.191,0.46,1.757c0.221,0.782,0.381,1.603,0.472,2.313
				c0.562,0.279,1.65,0.859,2.648,1.428l-0.351,0.867c-0.944-0.619-1.32-0.844-2.22-1.338c0.076,1.198,0.005,2.35-0.205,3.573
				c-0.279-0.149-0.338-0.163-0.871-0.152c0.291-1.258,0.348-2.162,0.247-3.855c-1.411-0.719-2.462-1.187-3.593-1.62l0.282-0.706
				c1.163,0.432,1.912,0.765,3.19,1.379c-0.166-1.125-0.665-2.755-1.035-3.428L318.475,171.761z"/>
		</g>
		<g>
			<path fill="#29ABE2" d="M354.654,159.786l1.685,1.831l-2.143,1.987l5.084,5.528c1.842,2.002,0.92,3.175-2.352,6.211
				c-0.605-0.454-1.65-0.944-2.408-1.225l-4.318,4.006l0.992,1.078l-1.94,1.8l-5.4-5.87l6.731-6.244l4.376,4.758
				c0.909-0.78,1.82-1.625,2.073-1.859c0.306-0.347,0.344-0.51,0.108-0.767l-5.038-5.477L340.92,175.92l-1.685-1.831l1.518-1.409
				c-0.593-0.338-1.659-0.649-2.293-0.727c2.669-3.08,3.616-4.973,3.478-6.653l-4.926,4.57l-1.637-1.779l5.617-5.211
				c-0.341-0.508-0.748-1.051-1.218-1.63l2.62-2.114c0.125,0.17,0.1,0.416-0.122,0.718c0.281,0.373,0.562,0.746,0.795,1.102
				l5.972-5.54l1.637,1.779l-5.786,5.368c2.539-1.181,5.521-2.393,7.473-3.125l-0.156,2.618L354.654,159.786z M341.159,172.305
				l10.729-9.953c-1.949,0.634-4.796,1.753-7.252,2.89c-0.032,1.87-1.021,4.023-3.492,7.046L341.159,172.305z M351.589,173.889
				l-1.479-1.608l-2.851,2.645l1.479,1.608L351.589,173.889z"/>
			<path fill="#29ABE2" d="M357.394,149.822c1.25,0.237,2.87,0.604,3.771,0.972l-0.551,2.257c-0.643-0.292-1.709-0.635-2.712-0.91
				l11.036,11.998l-1.974,1.831l-14.845-16.14l2.538-2.103c0.141,0.188,0.117,0.4-0.139,0.733l2.503,2.721L357.394,149.822z
				 M356.547,159.71c-0.374-1.46-1.697-3.375-2.969-4.826l1.775-1.266c1.496,1.594,2.974,3.744,3.468,5.505L356.547,159.71z
				 M364.387,139.716l1.787-0.675c0.077,0.151,0.055,0.298,0.034,0.446c1.173,2.464,1.612,4.88,1.482,7.253
				c1.647-0.418,3.354-1.146,5.039-2.168c-0.029,0.851,0.137,2.22,0.386,3.036c-1.946,1.044-3.896,1.679-5.848,1.936
				c-0.513,2.094-1.448,4.135-2.709,6.129c-0.675-0.326-1.839-0.674-2.571-0.755c1.151-1.671,2.045-3.452,2.565-5.267
				c-1.745-0.062-3.479-0.452-5.188-1.119l0.818-1.49l-1.838,1.706l-1.652-1.797l7.405-6.87L364.387,139.716z M360.672,146.588
				c1.389,0.458,2.836,0.637,4.358,0.558c0.131-1.422,0.016-2.839-0.394-4.235L360.672,146.588z M372.492,153.354l1.716,1.866
				l4.065-3.771l1.701,1.849l-10.308,9.562l-1.7-1.849l4.2-3.897l-1.716-1.866l-3.29,3.052l-1.669-1.813l3.29-3.052l-1.7-1.849
				l2.623-2.179c0.14,0.187,0.1,0.415-0.157,0.748l1.275,1.387l3.289-3.052l1.669,1.813L372.492,153.354z"/>
		</g>
		<g>
			<path fill="#29ABE2" d="M329.189,206.755l-0.645,0.464c0.981-0.037,2.096,0.039,2.798,0.134l-0.568,1.301
				c-0.273-0.054-0.619-0.113-1-0.145c-2.147,1.714-4.412,3.457-5.931,4.606c0.032,0.103,0.008,0.203-0.067,0.272l-1.216-0.869
				c0.873-0.628,2.084-1.514,3.414-2.485l-0.456-0.635l-2.481,1.787l-1.67-2.327l2.481-1.787l-0.363-0.506l0.833-0.53l-0.007-0.009
				c-1.119,0.707-2.002,0.996-2.971,0.758c0.096,0.825-0.063,1.623-0.469,2.362c-0.303-0.075-0.91-0.154-1.257-0.156
				c0.682-1.049,0.651-2.185,0.024-3.366l1.333-0.735c0.042,0.095,0.011,0.187-0.104,0.297l0.124,0.288
				c0.589,0.302,1.153,0.3,1.768,0.081l-1.162-1.619l-3.253,2.343l-0.64-0.892l6.925-4.987l0.203-0.161l0.703-0.422
				c0.191,0.267,0.463,1.605,0.521,2.359l-0.745,0.287l0.363,0.505l-2.063,1.486l0.344,0.479l1.125-0.795
				c0.809-0.583,2.075-1.509,2.534-1.868c0.022,0.319,0.203,0.859,0.346,1.174l-2.881,2.075c-0.236,0.17-0.47,0.325-0.686,0.466
				l0.465-0.293c0.057,0.099,0.033,0.2-0.104,0.355l0.178,0.248l2.59-1.865L329.189,206.755z M324.848,202.319
				c-0.042-0.192-0.088-0.411-0.144-0.623l-2.026,1.46l0.343,0.479L324.848,202.319z M323.443,209.581l1.455-1.047l-0.436-0.606
				l-1.455,1.047L323.443,209.581z M327.034,206.075l-1.491,1.074l0.436,0.606l1.491-1.074L327.034,206.075z M327.049,209.246
				l1.113-0.831l-0.694,0.012l0.358-0.691l-1.227,0.884L327.049,209.246z"/>
			<path fill="#29ABE2" d="M327.305,198.833c0.708,0.468,1.487,1.189,1.918,1.731l-0.672,0.792c-0.406-0.545-1.183-1.283-1.87-1.778
				L327.305,198.833z M333.754,202.17l-0.009,1.178c-0.299-0.147-0.759-0.347-1.222-0.529l2.126,2.962l-1.018,0.733l-1.987-2.77
				c0.209,0.868,0.349,1.717,0.33,2.4c-0.344-0.268-0.94-0.58-1.33-0.758c0.06-0.896-0.158-2.161-0.462-3.199l-1.063,0.766
				l-0.739-1.029l1.291-0.929l-2.265-3.155l1.298-0.823c0.051,0.089,0.026,0.191-0.108,0.33l1.538,2.143
				c-0.214-0.683-0.57-1.542-0.875-2.16l1.259-0.474c0.035,0.086-0.02,0.183-0.147,0.274c0.268,0.7,0.596,1.733,0.736,2.428
				c-0.228,0.065-0.508,0.156-0.761,0.227l0.343,0.479l1.118-0.805l0.739,1.029l-1.118,0.805l0.159,0.222
				c0.496,0.075,1.537,0.315,2.003,0.426l-0.509-0.708l1.936-1.394l-0.561-0.781l-1.545,1.113l-0.707-0.984l1.545-1.113
				l-0.501-0.699l-1.772,1.276l-0.727-1.012l0.809-0.583c-0.351-0.278-0.85-0.588-1.289-0.816l0.795-1.005
				c0.535,0.228,1.193,0.606,1.541,0.899l-0.284,0.372l1.554-1.119l-0.472,0.13c-0.083-0.499-0.261-1.208-0.445-1.675l1.575-0.534
				c0.025,0.093-0.039,0.195-0.166,0.287c0.077,0.377,0.132,0.896,0.162,1.32l0.954-0.688l0.726,1.012l-1.872,1.349l0.501,0.699
				l1.608-1.159l0.707,0.984l-1.609,1.159l0.561,0.781l1.963-1.414l0.746,1.039l-4.989,3.593L333.754,202.17z M335.226,202.031
				c0.461,0.854,0.832,1.928,0.859,2.772l-1.245,0.34c0.026-0.731-0.302-1.765-0.728-2.588L335.226,202.031z M336.245,201.339
				c0.592,0.537,1.308,1.304,1.68,1.803c-0.331,0.308-0.613,0.567-0.88,0.829c-0.369-0.516-1.065-1.312-1.659-1.89L336.245,201.339z
				 M338.424,202.896c-0.406-0.489-1.202-1.214-1.853-1.736l0.794-0.794c0.646,0.497,1.44,1.18,1.874,1.649L338.424,202.896z
				 M339.994,201.933c-0.485-0.502-1.436-1.213-2.24-1.68l0.731-0.96c0.816,0.445,1.771,1.084,2.29,1.576L339.994,201.933z"/>
		</g>
		<g>
			<path fill="#29ABE2" d="M339.315,129.778l1.965-0.067c0.027,0.152-0.055,0.276-0.137,0.4c0.042,1.597-0.259,3.192-0.827,4.761
				c2.124-0.435,4.395-1.251,6.666-2.36c-0.12,0.754-0.088,2.043,0.02,2.799c-0.628,0.271-1.25,0.516-1.873,0.761l3.064,4.891
				l-2.032,1.272l-0.327-0.521l-5.521,3.459l0.349,0.557l-1.917,1.201l-3.021-4.821c-0.59,0.661-1.218,1.297-1.857,1.915
				c-0.491-0.419-1.462-1.022-2.073-1.269c1.808-1.594,3.479-3.441,4.736-5.368c-0.792-0.062-1.566-0.206-2.32-0.389
				c-0.355,0.78-0.776,1.602-1.284,2.428c-0.583-0.312-1.648-0.663-2.281-0.727c1.601-2.216,2.317-4.312,2.422-6.074l-2.752,1.724
				l1.21,1.932l-1.917,1.201l-2.398-3.829l5.897-3.695l-1.068-1.705l2.562-1.41c0.092,0.184,0.043,0.36-0.235,0.607l0.773,1.235
				l6.029-3.777l2.399,3.829L341.553,130l-1.21-1.932l-5.439,3.408l0.808-0.312c0.06,0.204-0.022,0.401-0.268,0.555
				c0,0.218-0.028,0.43-0.044,0.658l3.653-2.289L339.315,129.778z M334.956,134.836l-0.039,0.121
				c0.879,0.201,1.829,0.26,2.855,0.224c0.421-0.895,0.711-1.779,0.886-2.664L334.956,134.836z M342.7,136.819
				c-1.207,0.295-2.396,0.507-3.559,0.582c-0.519,0.956-1.148,1.882-1.814,2.785L342.7,136.819z M339.245,143.467l5.521-3.459
				l-0.938-1.497l-5.521,3.459L339.245,143.467z"/>
		</g>
		<g>
			<path fill="#29ABE2" d="M238.128,203.121c-1.156-0.598-2.137-0.996-3.577-1.479l1.224-1.36c1.57,0.495,2.436,0.836,3.879,1.534
				l-1.097,1.302l2.794-0.016c0.802-0.004,1.26-0.021,1.847-0.096l0.031,1.915c-0.573-0.04-0.932-0.052-1.849-0.047l-3.167,0.018
				l0.037,2.276l2.651-0.015c0.63-0.003,1.131-0.035,1.604-0.081l0.03,1.887c-0.488-0.055-0.833-0.067-1.563-0.063l-2.694,0.015
				l0.043,2.678l3.568-0.02c0.816-0.005,1.389-0.036,2.047-0.112l0.032,1.974c-0.718-0.068-1.177-0.094-1.994-0.09l-8.897,0.049
				c-0.917,0.005-1.476,0.037-2.119,0.113l-0.032-1.974c0.56,0.069,1.147,0.094,2.064,0.089l3.353-0.019l-0.043-2.678l-2.393,0.013
				c-0.759,0.004-1.203,0.021-1.718,0.081l-0.03-1.887c0.459,0.055,0.818,0.068,1.563,0.064l2.55-0.014l-0.037-2.276l-2.995,0.017
				c-1.089,0.006-1.447,0.022-1.876,0.068l-0.031-1.915c0.56,0.069,0.961,0.081,1.85,0.076L238.128,203.121z"/>
			<path fill="#29ABE2" d="M252.628,200.563c-0.053,0.245-0.074,0.779-0.066,1.268c0.042,2.636,0.515,4.376,1.689,6.17
				c0.676,1.048,1.288,1.707,2.362,2.551c0.813,0.643,1.146,0.858,1.94,1.257c-0.605,0.695-0.828,1.056-1.245,1.937
				c-1.68-1.1-2.668-1.973-3.633-3.177c-0.877-1.104-1.454-2.196-1.98-3.763c-0.47,1.933-0.998,2.987-2.152,4.291
				c-0.957,1.1-1.847,1.854-3.224,2.696c-0.4-0.775-0.722-1.206-1.29-1.779c1.095-0.567,1.831-1.104,2.705-1.988
				c1.17-1.173,1.979-2.604,2.354-4.233c0.255-1.083,0.402-2.624,0.38-4.021c-0.009-0.547-0.028-0.806-0.091-1.195L252.628,200.563z
				"/>
		</g>
		<g>
			<path fill="none" stroke="#29ABE2" stroke-width="2.5413" stroke-miterlimit="10" d="M320.361,158.417
				c0,0-2.32,3.287-4.111,1.655c-1.789-1.636-0.914-1.456-0.914-1.456"/>
			<path fill="none" stroke="#29ABE2" stroke-width="2.5413" stroke-miterlimit="10" d="M317.151,157.48
				c0,0-2.827,1.965-4.524,0.216c-1.701-1.75-0.916-3.613-0.792-4.021c0.119-0.407,0.972-1.606,2.968-0.992"/>
			<path fill="none" stroke="#29ABE2" stroke-width="2.5413" stroke-miterlimit="10" d="M313.942,154.313
				c0,0,1.335-1.751,1.077-3.071c-1.074-0.583-3.061-2.62-3.492-3.63c-0.426-1.017,0.592-3.015,2.3-2.438
				c1.145,1.071,2.585,2.25,3.26,2.527c0.675,0.274,1.725-0.276,1.725-0.276s4.596-0.469,6.428,3.43
				c1.833,3.899-1.54,8.231-2.344,8.789c-0.799,0.556-1.701,1.655-3.362-0.067"/>
		</g>
		<g>
			<path fill="none" stroke="#29ABE2" stroke-width="2.5413" stroke-miterlimit="10" d="M258.061,230.886
				c0,0,1.384,0.818,2.749-0.87"/>
			<path fill="none" stroke="#29ABE2" stroke-width="2.5413" stroke-miterlimit="10" d="M258.68,224.117
				c0,0,2.298,4.143,4.171,2.725c1.87-1.418-0.36-4.886-0.667-5.273c-0.302-0.392-3.326-3.021-5.344-0.721
				c-2.022,2.298-1.34,5.12-1.34,5.12s-1.428,5.318,3.292,7.714c2.878,1.457,5.334,0.583,5.334,0.583"/>
			<path fill="none" stroke="#29ABE2" stroke-width="2.5413" stroke-miterlimit="10" d="M262.184,221.568
				c0,0,1.774-1.362,2.753-1.881c0.979-0.519,2.407-1.045,3.867-0.828c3.509,0.526,2.076,2.87,1.608,3.343
				c-0.636,0.638-3.745,2.264-3.745,2.264s2.838,0.977,2.702,2.497c-0.141,1.521-0.222,2.293-1.618,2.741
				c-1.401,0.449-3.014,0.492-4.858,0.093c-1.84-0.395-1.75-2.052-1.672-2.771"/>
			<path fill="none" stroke="#29ABE2" stroke-width="2.5413" stroke-miterlimit="10" d="M265.797,225.742
				c-1.279-0.482-2.215-0.731-2.215-0.731"/>
			<path fill="none" stroke="#29ABE2" stroke-width="2.5413" stroke-miterlimit="10" d="M262.652,229.733
				c0,0-1.148,1.374-0.663,2.229c0.483,0.857,0.666,2.005,3.287,2.107c2.617,0.107,3.411-1.774,3.355-1.881
				c-0.061-0.109,0.536-1.009-0.663-2.563"/>
		</g>
		
			<line fill="#29ABE2" stroke="#29ABE2" stroke-width="2.5413" stroke-miterlimit="10" x1="225.751" y1="192.718" x2="204.112" y2="190.423"/>
		
			<line fill="#29ABE2" stroke="#29ABE2" stroke-width="2.5413" stroke-miterlimit="10" x1="352.587" y1="194.419" x2="360.716" y2="182.159"/>
		
			<line fill="#29ABE2" stroke="#29ABE2" stroke-width="2.5413" stroke-miterlimit="10" x1="304.668" y1="230.53" x2="296.294" y2="226.108"/>
		
			<line fill="#29ABE2" stroke="#29ABE2" stroke-width="2.5413" stroke-miterlimit="10" x1="279.245" y1="240.374" x2="269.506" y2="242.891"/>
		
			<line fill="#29ABE2" stroke="#29ABE2" stroke-width="2.5413" stroke-miterlimit="10" x1="240.064" y1="177.841" x2="230.337" y2="170.548"/>
		
			<line fill="#29ABE2" stroke="#29ABE2" stroke-width="2.5413" stroke-miterlimit="10" x1="247.152" y1="246.3" x2="233.921" y2="249.059"/>
		
			<line fill="#29ABE2" stroke="#29ABE2" stroke-width="2.5413" stroke-miterlimit="10" x1="360.718" y1="132.863" x2="369.822" y2="121.624"/>
		
			<line fill="#29ABE2" stroke="#29ABE2" stroke-width="2.5413" stroke-miterlimit="10" x1="360.443" y1="125.701" x2="362.592" y2="116.806"/>
		
			<line fill="#29ABE2" stroke="#29ABE2" stroke-width="2.5413" stroke-miterlimit="10" x1="321.296" y1="126.944" x2="321.194" y2="119.081"/>
		
			<line fill="#29ABE2" stroke="#29ABE2" stroke-width="2.5413" stroke-miterlimit="10" x1="284.84" y1="191.096" x2="281.453" y2="185.687"/>
		
			<line fill="#29ABE2" stroke="#29ABE2" stroke-width="2.5413" stroke-miterlimit="10" x1="330.58" y1="186.532" x2="332.292" y2="177.463"/>
		
			<line fill="#29ABE2" stroke="#29ABE2" stroke-width="2.5413" stroke-miterlimit="10" x1="306.771" y1="132.079" x2="304.99" y2="129.235"/>
	</g>
	<g opacity="0.5">
		<path fill="none" stroke="#000000" stroke-width="1.0304" stroke-miterlimit="10" d="M191.129,210.665
			c9.742-0.351,12.132,0,12.132,0"/>
		<path fill="none" stroke="#000000" stroke-width="1.0304" stroke-miterlimit="10" d="M76.082,142.276l-3.073-6.96
			c0,0-20.884,3.936-29.768,5.755c-8.884,1.819-22.607,27.557-22.607,27.557"/>
		<path fill="none" stroke="#000000" stroke-width="1.0304" stroke-miterlimit="10" d="M243.188,127.478
			c22.375,14.228,24.134-1.833,24.994-1.632c0.955,13.428-15.789,13.864-22.93,5.173"/>
		<path fill="none" stroke="#000000" stroke-width="1.0304" stroke-miterlimit="10" d="M268.182,125.143
			c-0.688,0.693-25.681,0.16-25.681,0.16s18.624,6.127,25.681,0"/>
		<path fill="none" stroke="#000000" stroke-width="1.0304" stroke-miterlimit="10" d="M253.429,119.445
			c0,0,3.701,3.366,6.628,3.834c2.924,0.469,6.884,1.844,6.367,0.984c-0.517-0.86,3.977-0.682,4.742-2.921
			c0.768-2.24,0-2.929,0-2.929"/>
		<path fill="none" stroke="#000000" stroke-width="1.0304" stroke-miterlimit="10" d="M254.547,117.38c0,0-5.333,0.341-7.573,2.065
			c-2.237,1.721-8.263,6.025-8.95,5.853"/>
		<path fill="none" stroke="#000000" stroke-width="1.0304" stroke-miterlimit="10" d="M271.165,114.625
			c0,0,3.521,1.723,3.175,3.788"/>
		<path fill="none" stroke="#000000" stroke-width="1.0304" stroke-miterlimit="10" d="M265.046,103.14
			c0,0,3.27,13.551,4.474,13.551"/>
		<path fill="none" stroke="#000000" stroke-width="1.0304" stroke-miterlimit="10" d="M277.439,46.64c0,0,2.451,5.049,1.74,10.785"
			/>
		<path fill="none" stroke="#000000" stroke-width="1.0304" stroke-miterlimit="10" d="M223.912,35.281
			c-2.583,0.687,0.517,23.164,3.614,27.932c3.099,4.769,2.419,7.353,2.419,7.353"/>
		<path fill="none" stroke="#000000" stroke-width="1.0304" stroke-miterlimit="10" d="M235.788,45.262
			c7.227,8.606,7.919,13.081,6.713,16.523"/>
		<path fill="none" stroke="#000000" stroke-width="1.0304" stroke-miterlimit="10" d="M255.323,37.001
			c5.25,0,5.938,8.261,9.724,12.737c3.787,4.475,0.69,11.013,0,12.047"/>
		<path fill="none" stroke="#000000" stroke-width="1.0304" stroke-miterlimit="10" d="M282.607,86.055
			c0,0-0.134-14.888,1.545-17.341c1.676-2.453,0.256-6.843,2.195-7.746c1.935-0.903-1.679-11.36-2.648-12.133
			c-0.967-0.774-2.775-9.423-3.935-7.357c-1.162,2.065-11.62-7.917-11.62-7.917s-6.194-3.788-10.841-5.508
			c-4.649-1.721-16.009,0-17.042,1.378c-1.031,1.375-7.553-2.067-10.316,1.375c-2.763,3.444-15.193,2.409-13.912,3.786"/>
		<path fill="none" stroke="#000000" stroke-width="1.0304" stroke-miterlimit="10" d="M269.52,101.889c0,0,9.167-3.311,9.642-1.913
			c0.471,1.396-7.573,4.055-8.606,2.983"/>
		<path fill="none" stroke="#000000" stroke-width="1.0304" stroke-miterlimit="10" d="M238.025,104.986
			c1.981-1.29,15.119-1.931,15.404-1.374c-0.258,4.214-13.854,3.441-15.404,2.065"/>
		<path fill="none" stroke="#000000" stroke-width="1.0304" stroke-miterlimit="10" d="M268.144,100.257
			c0,0,8.448-7.834,14.463-5.252"/>
		<path fill="none" stroke="#000000" stroke-width="1.0304" stroke-miterlimit="10" d="M231.655,101.889
			c0,0,16.352-7.394,25.648-1.632"/>
		<path fill="none" stroke="#000000" stroke-width="1.0304" stroke-miterlimit="10" d="M215.23,105.677
			c0,0,4.551,10.326,4.378,12.391c-0.173,2.066,9.98,22.394,13.08,22.814"/>
		<path fill="none" stroke="#000000" stroke-width="1.0304" stroke-miterlimit="10" d="M261.95,149.909c0,0,8.434-6.368,7.744-13.08
			c-0.689-6.712,10.5-17.556,12.22-20.138c1.72-2.581-0.17-33.22-1.204-35.714c-1.033-2.495-6.774-10.412-6.774-10.412
			s-24.722,9.123-37.114,8.261c-12.393-0.862-10.846,9.122-12.222,11.015c-1.377,1.893-4.99,2.582-4.99,2.582"/>
		<path fill="none" stroke="#000000" stroke-width="1.0304" stroke-miterlimit="10" d="M261.604,155.589
			c0,0-12.736,2.065-16.352,0.688"/>
		<path fill="none" stroke="#000000" stroke-width="1.0304" stroke-miterlimit="10" d="M208.164,135.107
			c0,0-20.226,7.917-24.01,12.735"/>
		<path fill="none" stroke="#000000" stroke-width="1.0304" stroke-miterlimit="10" d="M212.896,211.527c0,0,10.5-49.732,0-54.47"/>
		<path fill="none" stroke="#000000" stroke-width="1.0304" stroke-miterlimit="10" d="M223.912,238.203
			c0,0,44.798,10.843,50.024,10.672"/>
		
			<line fill="none" stroke="#000000" stroke-width="1.0304" stroke-miterlimit="10" x1="284.152" y1="242.506" x2="279.511" y2="225.245"/>
		<polyline fill="none" stroke="#000000" stroke-width="1.0304" stroke-miterlimit="10" points="297.062,233.557 277.439,224.263 
			270.556,204.125 		"/>
		<path fill="none" stroke="#000000" stroke-width="1.0304" stroke-miterlimit="10" d="M273.936,147.843
			c0,0,31.104,44.793,27.548,79.861"/>
		<path fill="none" stroke="#000000" stroke-width="1.0304" stroke-miterlimit="10" d="M271.165,195.348
			c0,0,6.618-37.522-0.609-45.438"/>
		<path fill="none" stroke="#000000" stroke-width="1.0304" stroke-miterlimit="10" d="M270.556,142.173
			c0,0,29.069-0.869,33.811,20.817c4.742,21.688,7.152,43.027,7.668,45.094c0.519,2.066,5.048,18.809,5.048,18.809"/>
		<path fill="none" stroke="#000000" stroke-width="1.0304" stroke-miterlimit="10" d="M333.377,257.481
			c0,0,6.255,5.507,11.818,4.303"/>
		<path fill="none" stroke="#000000" stroke-width="1.0304" stroke-miterlimit="10" d="M329.417,264.884
			c13.253,6.711,22.546-11.403,22.546-11.403s-7.125,29.91-32.183,32.142"/>
		<path fill="none" stroke="#000000" stroke-width="1.0304" stroke-miterlimit="10" d="M338.416,219.675
			c0,0-8.136-0.576-12.956,2.865c-4.82,3.443-10.726,5.163-10.726,5.163"/>
		<path fill="none" stroke="#000000" stroke-width="1.0304" stroke-miterlimit="10" d="M356.957,236.054v2.149
			c0,0,2.239,6.369-20.653,11.189h-2.926l4.82,3.27c17.21,3.959,16.866-7.7,16.866-7.7"/>
		<path fill="none" stroke="#000000" stroke-width="1.0304" stroke-miterlimit="10" d="M354.89,227.704c0,0,5.165,4.649,2.066,8.351
			c-3.097,3.698-7.573,4.3-7.573,4.3"/>
		<path fill="none" stroke="#000000" stroke-width="1.0304" stroke-miterlimit="10" d="M361.775,222.713c0,0,7.573,2.583,7.4-1.206
			c-0.173-3.787-1.204-3.784-1.204-3.784"/>
		<path fill="none" stroke="#000000" stroke-width="1.0304" stroke-miterlimit="10" d="M343.268,238.333
			c-2.52,0.501-3.453,2.843-1.944,4.417c2.062,2.152,1.28,1.625,1.28,1.625"/>
		<path fill="none" stroke="#000000" stroke-width="1.0304" stroke-miterlimit="10" d="M300.159,238.203c0,0,3.613,3.616,2.41,4.303
			"/>
		<path fill="none" stroke="#000000" stroke-width="1.0304" stroke-miterlimit="10" d="M306.394,257.481c0,0,2.888,2.41,2.369,4.303
			"/>
		<path fill="none" stroke="#000000" stroke-width="1.0304" stroke-miterlimit="10" d="M302.568,246.636
			c0,0,2.237,2.756,1.723,4.476"/>
		<path fill="none" stroke="#000000" stroke-width="1.0304" stroke-miterlimit="10" d="M314.734,264.884
			c0,0,19.729-0.828,16.406-6.196c0,0,0.687-1.725-1.033-2.756c-1.723-1.033-13.255-1.55-13.255-1.55l12.393-1.204
			c0,0,7.402-1.893-0.688-7.399c-8.618-0.699-11.706-0.816-11.706-0.816"/>
		<path fill="none" stroke="#000000" stroke-width="1.0304" stroke-miterlimit="10" d="M325.114,270.905
			c0,0,6.262-5.078-2.581-4.991c-8.847,0.088-7.755,0.382-7.755,0.382"/>
		<path fill="none" stroke="#000000" stroke-width="1.0304" stroke-miterlimit="10" d="M341.011,236.656
			c0,0,9.406-0.602,6.823,6.367c-0.933,2.52-9.293,1.723-9.293,1.723l-9.279,0.682l-13.613-0.512l-3.614-1.03"/>
		<path fill="none" stroke="#000000" stroke-width="1.0304" stroke-miterlimit="10" d="M300.159,235.452
			c0,0,30.061,1.109,30.981,1.204"/>
		<path fill="none" stroke="#000000" stroke-width="1.0304" stroke-miterlimit="10" d="M343.704,208.084"/>
		<path fill="none" stroke="#000000" stroke-width="1.0304" stroke-miterlimit="10" d="M298.229,198.789
			c0,0,4.34-20.999-1.167-28.916c-5.509-7.916,5.753,42.041,5.753,42.041"/>
		<path fill="none" stroke="#000000" stroke-width="1.0304" stroke-miterlimit="10" d="M165.903,151.973
			c0,0,2.356,18.918,6.413,20.656"/>
		<path fill="none" stroke="#000000" stroke-width="1.0304" stroke-miterlimit="10" d="M101.91,249.529
			c0,0,17.149,40.039,17.339,48.693c0.188,8.655,19.804-32.308,19.804-32.308"/>
		<path fill="none" stroke="#000000" stroke-width="1.0304" stroke-miterlimit="10" d="M149.042,257.998
			c0,0-15.148,50.224-14.802,51.617"/>
		<path fill="none" stroke="#000000" stroke-width="1.0304" stroke-miterlimit="10" d="M106.703,301.017
			c0,0-12.629-52.658-18.535-66.084c-5.906-13.425,5.453-49.914,5.453-49.914"/>
		<path fill="none" stroke="#000000" stroke-width="1.0304" stroke-miterlimit="10" d="M205.372,268.41
			c0,0,5.804-35.166,2.792-37.763"/>
		<path fill="none" stroke="#000000" stroke-width="1.0304" stroke-miterlimit="10" d="M204.633,299.382
			c0,0-1.976-46.376-8.475-59.027"/>
		<path fill="none" stroke="#000000" stroke-width="1.0304" stroke-miterlimit="10" d="M210.659,242.506
			c0,0,8.95,19.276,8.95,23.408c0,4.13,11.033,25.47,10.336,26.505"/>
		<path fill="none" stroke="#000000" stroke-width="1.0304" stroke-miterlimit="10" d="M215.23,224.263
			c0,0,10.231,4.474,12.641,6.197c2.41,1.72,3.097-8.901,0-10.819c-3.099-1.917-16.696-1.233-19.708-20.853
			c-3.011-19.62-5.584-26.16-5.584-26.16s-8.993-15.559-17.151-18.795c-8.158-3.235-10.914-7.191-10.914-7.191"/>
		<path fill="none" stroke="#000000" stroke-width="1.0304" stroke-miterlimit="10" d="M187.94,187.774
			c0,0,19.965,22.89,18.589,31.067c-1.376,8.175,4.474,8.862,4.474,8.862s9.983,8.092,10.327,8.351"/>
		<path fill="none" stroke="#000000" stroke-width="1.0304" stroke-miterlimit="10" d="M240.264,292.525
			c0,0-2.419-10.361-7.576-18.87c-4.69-7.741-11.359-16.174-11.359-16.174s0.519-28.055-13.166-29.778"/>
		<path fill="none" stroke="#000000" stroke-width="1.0304" stroke-miterlimit="10" d="M186.563,278.62
			c0,0-5.774,15.796-14.247,19.273c-3.157,2.095,0,8.54,0,8.54"/>
		<path fill="none" stroke="#000000" stroke-width="1.0304" stroke-miterlimit="10" d="M165.903,240.354c0,0-1.382,19.021,0,30.551
			c1.381,11.535,0.338,40.793,0,41.481"/>
		<path fill="none" stroke="#000000" stroke-width="1.0304" stroke-miterlimit="10" d="M172.316,201.542
			c0,0,3.231,33.391,7.361,45.095c4.13,11.706,16.537,53.684,14.123,54.38"/>
		
			<line fill="none" stroke="#000000" stroke-width="1.0304" stroke-miterlimit="10" x1="187.94" y1="204.125" x2="191.549" y2="211.527"/>
		<path fill="none" stroke="#000000" stroke-width="1.0304" stroke-miterlimit="10" d="M189.316,208.084c0,0,11.726-1.376,13.263,0"
			/>
		<path fill="none" stroke="#000000" stroke-width="1.0304" stroke-miterlimit="10" d="M169.11,182.611l3.206,18.93l23.529-26.503
			c0,0,4.832-3.787,5.865-6.971c1.031-3.184-20.302-7.832-20.302-7.832"/>
		<path fill="none" stroke="#000000" stroke-width="1.0304" stroke-miterlimit="10" d="M162.477,144.745
			c0,0,13.07,12.232,15.134,12.312c2.066,0.08,3.446,6.622,3.789,9.375c0.344,2.754-12.29,16.18-12.29,16.18
			s-3.182-15.662-6.633-14.544c-3.452,1.118-2.741-16.093-1.72-18.158"/>
		<path fill="none" stroke="#000000" stroke-width="1.0304" stroke-miterlimit="10" d="M248.924,304.024c0,0-7.283-8.628-8.66-9.254
			c-1.377-0.626-37.685,9.254-37.685,9.254"/>
		<path fill="none" stroke="#000000" stroke-width="1.0304" stroke-miterlimit="10" d="M316.998,292.42
			c0,0,23.596,8.748,26.27,11.604"/>
		<path fill="none" stroke="#000000" stroke-width="1.0304" stroke-miterlimit="10" d="M235.646,144.514
			c0,0,20.453,8.493,26.303,5.395c0,0,7.227,47.849,8.606,49.915c1.377,2.063,0,4.3,0,4.3s-33.391-69.017-49.227-72.116"/>
		<path fill="none" stroke="#000000" stroke-width="1.0304" stroke-miterlimit="10" d="M281.833,251.112
			c0,0,0.122,13.182,1.518,13.771"/>
		<path fill="none" stroke="#000000" stroke-width="1.0304" stroke-miterlimit="10" d="M261.604,259.719
			c0,0-6.474,15.445-2.753,18.901"/>
		<path fill="none" stroke="#000000" stroke-width="1.0304" stroke-miterlimit="10" d="M240.264,248.171c0,0,6.757,5.889,8.66,9.31"
			/>
		
			<line fill="none" stroke="#000000" stroke-width="1.0304" stroke-miterlimit="10" x1="242.671" y1="269.553" x2="232.688" y2="267.521"/>
		<path fill="none" stroke="#000000" stroke-width="1.0304" stroke-miterlimit="10" d="M350.417,217.724
			c-12.909,0-16.696,4.99-22.546,7.056c-5.853,2.064-11.189,8.606-11.189,8.606s-2.583-5.509-5.679-6.025
			c-3.1-0.517-10.327,5.166-15.146,6.886c-4.82,1.723-14.113,15.146-14.113,15.146s-9.466,2.11-11.187,5.531
			c-1.722,3.418-8.262-1.443-8.262-1.443s-14.534,7.958-16.045,12.434c-1.511,4.474-7.708,12.705-7.708,12.705"/>
		<path fill="none" stroke="#000000" stroke-width="1.0304" stroke-miterlimit="10" d="M290.863,278.62c0,0-1.034-3.417-4.82-4.961"
			/>
		<path fill="none" stroke="#000000" stroke-width="1.0304" stroke-miterlimit="10" d="M294.077,290.184
			c0,0,2.295-6.367-0.458-6.713"/>
		<path fill="none" stroke="#000000" stroke-width="1.0304" stroke-miterlimit="10" d="M293.619,301.017c0,0,2.066-4.934,0-6.247"/>
		<path fill="none" stroke="#000000" stroke-width="1.0304" stroke-miterlimit="10" d="M324.03,271.982c0,0-3.662-0.446-5.333-4.461
			"/>
		<path fill="none" stroke="#000000" stroke-width="1.0304" stroke-miterlimit="10" d="M306.838,291.836c0,0,2.41-6.026,0-9.123"/>
		<path fill="none" stroke="#000000" stroke-width="1.0304" stroke-miterlimit="10" d="M304.786,291.836c0,0,2.41-6.026,0-9.123"/>
		<path fill="none" stroke="#000000" stroke-width="1.0304" stroke-miterlimit="10" d="M317.025,287.946
			c0,0,0.602,3.456-2.066,4.474"/>
		<path fill="none" stroke="#000000" stroke-width="1.0304" stroke-miterlimit="10" d="M299.469,292.42
			c0,0,14.112-0.124,15.489,2.35c0,0,3.446,4.537,1.379,5.913c-2.066,1.377-3.787,1.377-3.787,1.377s-11.016,1.964-13.082,1.964
			c-2.064,0-8.606,5.591-8.606,5.591"/>
		<path fill="none" stroke="#000000" stroke-width="1.0304" stroke-miterlimit="10" d="M242.671,294.77
			c0,0,20.653-10.266,25.819-19.218c5.163-8.948,27.536-13.08,27.536-13.08s25.475,3.787,27.541,7.917
			c2.064,4.13-3.443,3.268-3.443,3.268l-15.146-2.575c0,0,13.769,7.914,12.046,16.866c-5.164-4.476-9.293-5.506-14.457-5.506"/>
		<path fill="none" stroke="#000000" stroke-width="1.0304" stroke-miterlimit="10" d="M160.745,46.64
			c0.343,1.377-6.886,46.128-5.853,58.346c1.033,12.223-4.13,42.166-5.851,41.65"/>
		<path fill="none" stroke="#000000" stroke-width="1.0304" stroke-miterlimit="10" d="M197.754,37.001
			c0,0-15.667,23.408-19.454,35.457"/>
		<path fill="none" stroke="#000000" stroke-width="1.0304" stroke-miterlimit="10" d="M166.771,114.625
			c9.98-10.326,3.441-18.761,3.441-18.761c-4.647,8.951-4.301,18.761-4.301,18.761l0.771,4.819"/>
		<path fill="none" stroke="#000000" stroke-width="1.0304" stroke-miterlimit="10" d="M195.845,129.083
			c0,0-5.322-8.088-4.119-12.392"/>
		<path fill="none" stroke="#000000" stroke-width="1.0304" stroke-miterlimit="10" d="M198.783,122.199
			c0,0-3.616-6.541-5.851-7.573c0,0-0.519,5.852,2.924,9.638"/>
		<path fill="none" stroke="#000000" stroke-width="1.0304" stroke-miterlimit="10" d="M193.8,113.249c0,0,7.737,2.065,7.91,6.885"
			/>
		<path fill="none" stroke="#000000" stroke-width="1.0304" stroke-miterlimit="10" d="M205.496,104.986c0,0-4.82,6.026-2.066,7.058
			c2.756,1.033,4.649,2.066,4.734,2.582"/>
		<path fill="none" stroke="#000000" stroke-width="1.0304" stroke-miterlimit="10" d="M212.896,90.702
			c-2.581-3.356-9.466-7.573-9.466-7.573s1.723,6.539,3.616,8.434"/>
		<path fill="none" stroke="#000000" stroke-width="1.0304" stroke-miterlimit="10" d="M218.232,86.055
			c0,0,2.066-6.025-7.917-10.156"/>
		<path fill="none" stroke="#000000" stroke-width="1.0304" stroke-miterlimit="10" d="M161.435,142.173
			c0,0-11.36,10.49-8.263,27.013c3.1,16.523,14.802,23.407,14.457,25.473c-0.344,2.063-0.953,32.358,4.688,40.274"/>
		<path fill="none" stroke="#000000" stroke-width="1.0304" stroke-miterlimit="10" d="M142.846,108.256
			c0,0-7.23,49.569-1.723,76.763"/>
		<path fill="none" stroke="#000000" stroke-width="1.0304" stroke-miterlimit="10" d="M153.172,13.593
			c0,0-25.818,29.605-24.096,72.462c1.72,42.855-12.739,50.428-9.296,53.526c3.445,3.099,12.731,52.497,14.455,58.693"/>
		<path fill="none" stroke="#000000" stroke-width="1.0304" stroke-miterlimit="10" d="M150.341,67.637
			c-0.956,25.475-1.792,55.767-5.332,61.446"/>
		<path fill="none" stroke="#000000" stroke-width="1.0304" stroke-miterlimit="10" d="M139.054,211.524
			c0,0,4.823,18.933,16.872,32.358"/>
		<path fill="none" stroke="#000000" stroke-width="1.0304" stroke-miterlimit="10" d="M140.95,250.079
			c14.976,11.36-31.152-31.671-31.496-48.538"/>
		<path fill="none" stroke="#000000" stroke-width="1.0304" stroke-miterlimit="10" d="M115.65,42.165
			c0,0-12.393,44.407-16.523,53.7c-4.132,9.293-18.245,52.162-6.196,61.192c0,0,10.699,32.44,8.979,51.027"/>
		<path fill="none" stroke="#000000" stroke-width="1.0304" stroke-miterlimit="10" d="M163.688,21.167
			c0,0-24.286,27.539-26.696,54.733"/>
		<path fill="none" stroke="#000000" stroke-width="1.0304" stroke-miterlimit="10" d="M221.931,58
			c-3.528-12.331-3.698-33.392-17.943-30.878c2.966-18.142-31.652-19.225-42.209-20.068c-17.212-1.377-49.571,17.211-55.077,46.815
			c-5.507,29.602-41.637,82.114-31.057,87.014l20.94,36.958"/>
		<path fill="none" stroke="#000000" stroke-width="1.0304" stroke-miterlimit="10" d="M188.371,63.421
			c0,0,8.604,0.945,10.412-1.636c1.808-2.583,14.113-16.523,14.113-16.523s7.229,11.446,9.035,12.738
			c1.808,1.29,3.358,14.973,0,22.977c-3.355,8.003-6.968,12.134-8.26,13.941c-1.292,1.807,3.528,24.527-3.875,24.268
			c-2.446-0.083-5.677-2.064-5.677-2.064s-1.033,4.647-1.292,4.905c-0.258,0.258-3.357,2.066-3.875,1.55
			c-0.516-0.517-2.321,2.323-2.321,2.323s1.547,3.873-3.875,6.971c-0.597,5.53-4.905,9.303-4.905,9.303s-8.933,2.065-18.742,0
			c-9.812-2.066-2.168-23.503-2.168-23.503s11.876-4.647,7.229-26.333C180.367,82.527,189.66,75.813,188.371,63.421z"/>
	</g>
</g>
<g>
	<path fill="#29ABE2" stroke="#515151" stroke-miterlimit="10" d="M332.431,233.815l24.958-21.686l20.655-13.596
		c0,0,3.268,3.957,1.892,5.336c-1.375,1.377-11.017,11.53-11.017,11.53l-2.895,2.325l-11.905,9.552l-12.909,9.639h-10.153
		C331.056,236.914,331.056,234.77,332.431,233.815z"/>
	<polyline opacity="0.5" fill="none" stroke="#000000" stroke-width="1.0304" stroke-miterlimit="10" points="377.182,204.383 
		361.691,214.366 350.333,224.521 	"/>
</g>
</svg>
