<?xml version="1.0" encoding="utf-8"?>
<!-- Generator: Adobe Illustrator 16.0.0, SVG Export Plug-In . SVG Version: 6.00 Build 0)  -->
<!DOCTYPE svg PUBLIC "-//W3C//DTD SVG 1.1//EN" "http://www.w3.org/Graphics/SVG/1.1/DTD/svg11.dtd">
<svg version="1.1" id="Layer_1" xmlns="http://www.w3.org/2000/svg" xmlns:xlink="http://www.w3.org/1999/xlink" x="0px" y="0px"
	 width="346.412px" height="324.513px" viewBox="0 0 346.412 324.513" enable-background="new 0 0 346.412 324.513"
	 xml:space="preserve">
<g>
	<polygon fill="#29ABE2" points="148.914,241.836 146.403,232.771 147.091,229.983 182.921,229.694 184.385,232.771 
		184.439,242.878 183.671,243.767 167.432,247.688 168.581,243.188 167.152,241.099 	"/>
	<g opacity="0.5">
		<path fill="none" stroke="#000000" stroke-width="0.7253" stroke-miterlimit="10" d="M394.713,48.937l-71.226,27.276
			c0,0-2.629,1.342-2.629,10.335c0,8.995,4.881,128.943,4.881,128.943s-0.883,8.9,3.567,9.327
			c4.452,0.427,30.525,8.752,30.525,8.752"/>
		<path fill="none" stroke="#000000" stroke-width="0.9487" stroke-miterlimit="10" d="M191.124,100.536
			c-0.953,2.735-10.112,2.541-10.925,1.206C179.387,100.407,189.786,99.247,191.124,100.536"/>
		<line fill="none" stroke="#000000" stroke-width="0.9282" stroke-miterlimit="10" x1="222.789" y1="82.866" x2="258.229" y2="0"/>
		<polyline fill="none" stroke="#000000" stroke-width="0.9282" stroke-miterlimit="10" points="230.324,141.253 234.586,69.352 
			226.571,90.378 		"/>
		<polyline fill="none" stroke="#000000" stroke-width="0.9282" stroke-miterlimit="10" points="274.618,-13.589 242.45,54.676 
			238.283,146.751 		"/>
		<path fill="none" stroke="#000000" stroke-width="0.9282" stroke-miterlimit="10" d="M204.576,121.366
			c6.181-28.027,5.822,13.546,5.822,13.546s1.824,16.869-2.908,25.617"/>
		<path fill="none" stroke="#000000" stroke-width="0.9282" stroke-miterlimit="10" d="M197.512,91.979
			c0,0,34.012,34.303,18.525-14.846"/>
		<path fill="none" stroke="#000000" stroke-width="0.9282" stroke-miterlimit="10" d="M201.013,67.178
			c0,0,13.104,46.307,8.347,1.067"/>
		<path fill="none" stroke="#000000" stroke-width="0.9282" stroke-miterlimit="10" d="M151.302,56.188c0,0,16.943-12.877,31.124,0
			c14.18,12.876,18.587,2.796,18.587,2.796"/>
		<path fill="none" stroke="#000000" stroke-width="0.9282" stroke-miterlimit="10" d="M130.172,150.249"/>
		<path fill="none" stroke="#000000" stroke-width="0.9282" stroke-miterlimit="10" d="M141.247,79.916c0,0-7.997,13.084,0,26.636
			c7.994,13.552,9.98,26.202,6.919,28.361"/>
		<path fill="none" stroke="#000000" stroke-width="0.9282" stroke-miterlimit="10" d="M214.11,177.797
			c0,0-18.73-22.214-19.038-34.041c-0.31-11.826,1.744-16.855,4.1-34.88"/>
		<path fill="none" stroke="#000000" stroke-width="0.9282" stroke-miterlimit="10" d="M122.299,138.465
			c0,0,7.466-7.157,1.826-21.784c-5.641-14.628-3.747-10.271-2.232-20.852c1.512-10.582,10.124-25.916,11.97-27.585
			c1.845-1.67,24.514-30.718,35.324-27.397c7.734-4.148,25.398,0.514,28.325,4.429c0,0,17.721,16.589,18.25,28.903
			s6.817,8.52,7.056,29.09s-0.114,29.892,3.753,37.991c3.868,8.098,12.789,13.705,11.712,15.57"/>
		<polyline fill="none" stroke="#000000" stroke-width="0.9282" stroke-miterlimit="10" points="67.479,204.293 71.581,196.657 
			71.437,190.005 67.479,186.78 		"/>
		<path fill="none" stroke="#000000" stroke-width="0.9282" stroke-miterlimit="10" d="M68.162,33.413
			c1.904,3.959,1.343,145.566,1.343,145.566l7.401,15.138l-0.518,4.567l-4.952,7.47"/>
		<polyline fill="none" stroke="#000000" stroke-width="0.9282" stroke-miterlimit="10" points="51.069,-7.152 53.896,8.246 
			30.259,-8.246 		"/>
		<path fill="none" stroke="#000000" stroke-width="0.9282" stroke-miterlimit="10" d="M132.558,69.955l-65.08-52.554
			c0,0-2.405-22.267-4.329-24.112"/>
		
			<line fill="none" stroke="#000000" stroke-width="0.9282" stroke-miterlimit="10" x1="69.505" y1="32.217" x2="128.519" y2="77.134"/>
		<path fill="none" stroke="#000000" stroke-width="0.9282" stroke-miterlimit="10" d="M32.887,5.763
			c0,0,25.315,15.61,25.315,19.848c0,1.013,1.953,12.691,2.122,29.88c0.532,54.715-0.197,165.259-0.197,165.259"/>
		<path fill="none" stroke="#000000" stroke-width="0.9282" stroke-miterlimit="10" d="M60.127,242.782v-17.399
			c0,0,9.166-0.555,11.31-0.945c2.143-0.389,0,11.409,0,11.409"/>
		<path fill="none" stroke="#000000" stroke-width="0.9282" stroke-miterlimit="10" d="M170.465,311.007
			c0,0-1.267-1.126-2.729-1.212"/>
		<path fill="none" stroke="#000000" stroke-width="0.9282" stroke-miterlimit="10" d="M166.28,311.57c0,0-0.022,3.374,0.742,3.638
			c0.764,0.261,4.12,0.618,4.491-2.034"/>
		<path fill="none" stroke="#000000" stroke-width="0.9282" stroke-miterlimit="10" d="M166.58,308.771l1.588,3.276l0.572,1.185
			c0,0,1.379,1.438,0.848,0.389"/>
		<path fill="none" stroke="#000000" stroke-width="0.9282" stroke-miterlimit="10" d="M169.629,308.489
			c1.748,0.713-1.98-0.235-3.124-1.233"/>
		<path fill="none" stroke="#000000" stroke-width="0.9282" stroke-miterlimit="10" d="M166.077,306.369
			c0,0,0.078,0.436,0.077,1.046c-0.003,0.993-0.217,2.452-1.33,3.25"/>
		<path fill="none" stroke="#000000" stroke-width="0.9282" stroke-miterlimit="10" d="M142.976,305.51c0,0,1.055,1.314,2.481,1.634
			"/>
		<path fill="none" stroke="#000000" stroke-width="0.9282" stroke-miterlimit="10" d="M147.199,305.629
			c0,0,0.604-3.322-0.104-3.704c-0.707-0.381-3.956-1.275-4.779,1.279"/>
		<path fill="none" stroke="#000000" stroke-width="0.9282" stroke-miterlimit="10" d="M146.42,308.342l-0.999-3.487l-0.361-1.26
			c0,0-1.109-1.64-0.769-0.521"/>
		<path fill="none" stroke="#000000" stroke-width="0.9282" stroke-miterlimit="10" d="M143.366,308.127
			c-1.601-0.985,1.911,0.551,2.866,1.721"/>
		<path fill="none" stroke="#000000" stroke-width="0.9282" stroke-miterlimit="10" d="M146.501,310.79c0,0-0.002-0.44,0.105-1.043
			c0.174-0.979,0.637-2.384,1.873-2.99"/>
		<path fill="none" stroke="#000000" stroke-width="0.9282" stroke-miterlimit="10" d="M196.357,300.985
			c0,0-0.406-1.618-1.572-2.474"/>
		<path fill="none" stroke="#000000" stroke-width="0.9282" stroke-miterlimit="10" d="M192.554,299.205
			c0,0-1.958,2.792-1.474,3.422c0.485,0.628,3.07,2.728,4.902,0.722"/>
		<path fill="none" stroke="#000000" stroke-width="0.9282" stroke-miterlimit="10" d="M194.412,297.037l-0.562,3.578l-0.204,1.292
			c0,0,0.318,1.935,0.48,0.778"/>
		<path fill="none" stroke="#000000" stroke-width="0.9282" stroke-miterlimit="10" d="M197.11,298.443
			c1.041,1.532-1.512-1.262-1.889-2.706"/>
		<path fill="none" stroke="#000000" stroke-width="0.9282" stroke-miterlimit="10" d="M195.375,294.771
			c0,0-0.185,0.403-0.537,0.908c-0.573,0.828-1.59,1.923-2.975,1.989"/>
		<path fill="none" stroke="#000000" stroke-width="0.9282" stroke-miterlimit="10" d="M174.546,293.406
			c0,0,1.055,1.314,2.481,1.635"/>
		<path fill="none" stroke="#000000" stroke-width="0.9282" stroke-miterlimit="10" d="M178.769,293.526
			c0,0,0.605-3.322-0.103-3.704c-0.708-0.381-3.956-1.277-4.779,1.279"/>
		<path fill="none" stroke="#000000" stroke-width="0.9282" stroke-miterlimit="10" d="M177.992,296.238l-1-3.486l-0.361-1.26
			c0,0-1.109-1.64-0.768-0.521"/>
		<path fill="none" stroke="#000000" stroke-width="0.9282" stroke-miterlimit="10" d="M174.936,296.024
			c-1.6-0.985,1.912,0.551,2.866,1.721"/>
		<path fill="none" stroke="#000000" stroke-width="0.9282" stroke-miterlimit="10" d="M178.073,298.688
			c0,0-0.002-0.442,0.105-1.044c0.173-0.979,0.637-2.384,1.872-2.989"/>
		<path fill="none" stroke="#000000" stroke-width="0.9282" stroke-miterlimit="10" d="M148.619,285.986c0,0-0.652-1.54-1.939-2.217
			"/>
		<path fill="none" stroke="#000000" stroke-width="0.9282" stroke-miterlimit="10" d="M144.583,284.78c0,0-1.499,3.047-0.923,3.598
			c0.577,0.549,3.46,2.251,4.959,0"/>
		<path fill="none" stroke="#000000" stroke-width="0.9282" stroke-miterlimit="10" d="M146.082,282.367v3.619v1.307
			c0,0,0.617,1.868,0.598,0.7"/>
		<path fill="none" stroke="#000000" stroke-width="0.9282" stroke-miterlimit="10" d="M148.965,283.362
			c1.271,1.363-1.689-1.025-2.286-2.398"/>
		<path fill="none" stroke="#000000" stroke-width="0.9282" stroke-miterlimit="10" d="M146.679,279.986c0,0-0.12,0.425-0.391,0.978
			c-0.438,0.899-1.271,2.133-2.629,2.398"/>
		<path fill="none" stroke="#000000" stroke-width="0.9282" stroke-miterlimit="10" d="M167.971,277.605
			c0,0,0.525,1.585,1.752,2.357"/>
		<path fill="none" stroke="#000000" stroke-width="0.9282" stroke-miterlimit="10" d="M171.896,279.114
			c0,0,1.742-2.925,1.213-3.518c-0.532-0.591-3.268-2.506-4.943-0.375"/>
		<path fill="none" stroke="#000000" stroke-width="0.9282" stroke-miterlimit="10" d="M170.208,281.404l0.293-3.606l0.105-1.303
			c0,0-0.465-1.91-0.54-0.743"/>
		<path fill="none" stroke="#000000" stroke-width="0.9282" stroke-miterlimit="10" d="M167.413,280.195
			c-1.156-1.457,1.601,1.15,2.084,2.563"/>
		<path fill="none" stroke="#000000" stroke-width="0.9282" stroke-miterlimit="10" d="M169.417,283.733
			c0,0,0.154-0.415,0.469-0.943c0.509-0.865,1.439-2.032,2.815-2.193"/>
		<path fill="none" stroke="#000000" stroke-width="0.9282" stroke-miterlimit="10" d="M189.289,281.224c0,0-0.653-1.54-1.939-2.217
			"/>
		<path fill="none" stroke="#000000" stroke-width="0.9282" stroke-miterlimit="10" d="M185.252,280.018
			c0,0-1.499,3.046-0.923,3.598c0.577,0.548,3.46,2.25,4.959,0"/>
		<path fill="none" stroke="#000000" stroke-width="0.9282" stroke-miterlimit="10" d="M186.751,277.604v3.619v1.307
			c0,0,0.616,1.868,0.598,0.7"/>
		<path fill="none" stroke="#000000" stroke-width="0.9282" stroke-miterlimit="10" d="M189.635,278.6
			c1.27,1.363-1.69-1.025-2.286-2.399"/>
		<path fill="none" stroke="#000000" stroke-width="0.9282" stroke-miterlimit="10" d="M187.349,275.224
			c0,0-0.121,0.425-0.391,0.977c-0.438,0.9-1.271,2.134-2.629,2.399"/>
		<path fill="none" stroke="#000000" stroke-width="0.9282" stroke-miterlimit="10" d="M195.376,263.668c0,0-0.652-1.54-1.938-2.217
			"/>
		<path fill="none" stroke="#000000" stroke-width="0.9282" stroke-miterlimit="10" d="M158.38,219.383c0,0,0.652,1.54,1.942,2.218"
			/>
		<path fill="none" stroke="#000000" stroke-width="0.9282" stroke-miterlimit="10" d="M162.417,220.59c0,0,0.922-2.98,0.922-3.598
			c0-0.801-4.959-3.582-4.959,1.231"/>
		<path fill="none" stroke="#000000" stroke-width="0.9282" stroke-miterlimit="10" d="M160.918,223.002v-3.619v-1.307
			c0,0-0.617-1.867-0.596-0.7"/>
		<path fill="none" stroke="#000000" stroke-width="0.9282" stroke-miterlimit="10" d="M158.034,222.005
			c-1.267-1.36,1.692,1.027,2.289,2.399"/>
		<path fill="none" stroke="#000000" stroke-width="0.9282" stroke-miterlimit="10" d="M160.323,225.383
			c0,0,0.118-0.426,0.389-0.979c0.437-0.898,1.271-2.131,2.628-2.399"/>
		<path fill="none" stroke="#000000" stroke-width="0.9282" stroke-miterlimit="10" d="M175.787,264.088c0,0,0.65,1.541,1.941,2.219
			"/>
		<path fill="none" stroke="#000000" stroke-width="0.9282" stroke-miterlimit="10" d="M179.823,265.294c0,0,0.925-2.98,0.925-3.596
			c0-0.803-4.961-3.583-4.961,1.231"/>
		<path fill="none" stroke="#000000" stroke-width="0.9282" stroke-miterlimit="10" d="M178.324,267.708v-3.618v-1.309
			c0,0-0.615-1.868-0.596-0.7"/>
		<path fill="none" stroke="#000000" stroke-width="0.9282" stroke-miterlimit="10" d="M175.441,266.712
			c-1.269-1.362,1.69,1.025,2.287,2.399"/>
		<path fill="none" stroke="#000000" stroke-width="0.9282" stroke-miterlimit="10" d="M177.728,270.09c0,0,0.119-0.426,0.389-0.979
			c0.438-0.9,1.272-2.131,2.631-2.399"/>
		<path fill="none" stroke="#000000" stroke-width="0.9282" stroke-miterlimit="10" d="M180.475,265.723
			c0,0-0.653-1.541-1.942-2.217"/>
		<path fill="none" stroke="#000000" stroke-width="0.9282" stroke-miterlimit="10" d="M176.437,264.517
			c0,0-0.923,2.979-0.923,3.597c0,0.802,4.961,3.581,4.961-1.232"/>
		<path fill="none" stroke="#000000" stroke-width="0.9282" stroke-miterlimit="10" d="M177.935,262.104v3.619v1.306
			c0,0,0.617,1.868,0.598,0.7"/>
		<path fill="none" stroke="#000000" stroke-width="0.9282" stroke-miterlimit="10" d="M180.82,263.1
			c1.269,1.36-1.689-1.025-2.287-2.399"/>
		<path fill="none" stroke="#000000" stroke-width="0.9282" stroke-miterlimit="10" d="M178.533,259.722
			c0,0-0.119,0.426-0.389,0.979c-0.438,0.9-1.273,2.132-2.63,2.399"/>
		<path fill="none" stroke="#000000" stroke-width="0.9282" stroke-miterlimit="10" d="M191.34,262.461c0,0-1.499,3.046-0.923,3.598
			c0.577,0.551,3.46,2.252,4.959,0"/>
		<path fill="none" stroke="#000000" stroke-width="0.9282" stroke-miterlimit="10" d="M192.839,260.049v3.619v1.306
			c0,0,0.617,1.868,0.599,0.7"/>
		<path fill="none" stroke="#000000" stroke-width="0.9282" stroke-miterlimit="10" d="M195.724,261.044
			c1.27,1.364-1.69-1.024-2.286-2.397"/>
		<path fill="none" stroke="#000000" stroke-width="0.9282" stroke-miterlimit="10" d="M193.438,257.667
			c0,0-0.121,0.426-0.391,0.979c-0.438,0.899-1.271,2.132-2.63,2.397"/>
		<path fill="none" stroke="#000000" stroke-width="0.9282" stroke-miterlimit="10" d="M-88.586,50.464L28.06,77.742
			c0,0,4.305,1.342,4.305,10.336c0,8.995-7.997,128.943-7.997,128.943s1.45,8.899-5.839,9.326
			c-7.289,0.428-49.992,8.752-49.992,8.752"/>
		<path fill="none" stroke="#000000" stroke-width="0.9282" stroke-miterlimit="10" d="M155.57,270.224c0,0,0.653,1.541,1.943,2.219
			"/>
		<path fill="none" stroke="#000000" stroke-width="0.9282" stroke-miterlimit="10" d="M159.609,271.432
			c0,0,0.922-2.981,0.922-3.598c0-0.803-4.961-3.582-4.961,1.229"/>
		<path fill="none" stroke="#000000" stroke-width="0.9282" stroke-miterlimit="10" d="M158.108,273.844v-3.62v-1.308
			c0,0-0.616-1.866-0.595-0.698"/>
		<path fill="none" stroke="#000000" stroke-width="0.9282" stroke-miterlimit="10" d="M155.224,272.848
			c-1.269-1.361,1.692,1.025,2.289,2.399"/>
		<path fill="none" stroke="#000000" stroke-width="0.9282" stroke-miterlimit="10" d="M157.513,276.227c0,0,0.119-0.428,0.389-0.98
			c0.437-0.899,1.272-2.132,2.629-2.398"/>
		<path fill="none" stroke="#000000" stroke-width="0.9282" stroke-miterlimit="10" d="M133.863,196.657
			c0,0-8.73,28.331-13.537,32.224"/>
		<path fill="none" stroke="#000000" stroke-width="0.9282" stroke-miterlimit="10" d="M117.295,220.955
			c0,0-3.374,15.422-1.168,20.098"/>
		<path fill="none" stroke="#000000" stroke-width="0.9282" stroke-miterlimit="10" d="M151.302,194.117
			c0,0,19.954,22.532,35.771,9.346c0,0,23.008-21.109,17.502-28.271"/>
		<path fill="none" stroke="#000000" stroke-width="0.9282" stroke-miterlimit="10" d="M148.166,190.005
			c0,0,28.145,4.6,34.756-7.286c6.611-11.887,9.072-18.423,9.072-18.423"/>
		<path fill="none" stroke="#000000" stroke-width="0.9282" stroke-miterlimit="10" d="M133.863,175.192
			c0,0,2.206,28.451,41.062-5.393c21.258-18.517,17.069-19.551,17.069-19.551"/>
		<path fill="none" stroke="#000000" stroke-width="0.9282" stroke-miterlimit="10" d="M122.484,146.751
			c0,0-0.308,23.769,11.073,26.259c11.38,2.49,13.226-2.18,18.761,0"/>
		<path fill="none" stroke="#000000" stroke-width="0.9282" stroke-miterlimit="10" d="M187.074,138.465
			c0,0-11.877,42.328-35.771,36.103"/>
		<path fill="none" stroke="#000000" stroke-width="0.9282" stroke-miterlimit="10" d="M159.546,138.465
			c0,0,8.147,20.19,14.953,20.95"/>
		<path fill="none" stroke="#000000" stroke-width="0.9282" stroke-miterlimit="10" d="M137.401,141.253
			c0,0,12.482-7.922,16.43-6.055s6.967,15.992,2.532,35.631"/>
		<path fill="none" stroke="#000000" stroke-width="0.9282" stroke-miterlimit="10" d="M152.318,172.077
			c0,0-6.15-24.276-22.146-25.326"/>
		
			<ellipse fill="none" stroke="#000000" stroke-width="0.9282" stroke-miterlimit="10" cx="185.676" cy="101.567" rx="1.397" ry="0.968"/>
		
			<ellipse fill="none" stroke="#000000" stroke-width="0.9282" stroke-miterlimit="10" cx="161.144" cy="101.441" rx="1.597" ry="1.095"/>
		<path fill="none" stroke="#000000" stroke-width="0.9282" stroke-miterlimit="10" d="M156.317,100.536
			c0.916,2.735,9.68,2.541,10.459,1.206C167.552,100.407,157.6,99.247,156.317,100.536z"/>
		<path fill="none" stroke="#000000" stroke-width="0.9282" stroke-miterlimit="10" d="M168.62,117.692c0,0,0.073,3.968,5.88,3.657
			c5.809-0.311,5.655-4.668,5.655-4.668"/>
		<path fill="none" stroke="#000000" stroke-width="0.9282" stroke-miterlimit="10" d="M184.766,126.327c0,0-18.77,0.624-20.534,0
			c0,0,8.693,4.046,12.386,3.114c3.69-0.933,5.843-1.486,5.843-1.486"/>
		<path fill="none" stroke="#000000" stroke-width="0.9282" stroke-miterlimit="10" d="M182.46,119.793"/>
		<path fill="none" stroke="#000000" stroke-width="0.9282" stroke-miterlimit="10" d="M161.854,129.441"/>
		<path fill="none" stroke="#000000" stroke-width="0.9282" stroke-miterlimit="10" d="M166.776,119.793"/>
		<path fill="none" stroke="#000000" stroke-width="0.9282" stroke-miterlimit="10" d="M179.076,97.679
			c0,0,11.073-3.423,15.996-0.925"/>
		<path fill="none" stroke="#000000" stroke-width="0.9282" stroke-miterlimit="10" d="M152.318,95.83
			c0,0,12.305-0.036,14.458,1.849"/>
		<path fill="none" stroke="#000000" stroke-width="0.9282" stroke-miterlimit="10" d="M149.244,80.999
			c0,0-3.384,22.923,1.845,33.815c5.229,10.893,6.785,17.022,12.919,20.384c4.257,2.334,4.614,5.73,10.765,6.055
			c6.149,0.325,17.837-13.128,19.991-17.605c2.152-4.478,4.921-17.548,5.535-18.794c0.616-1.245-5.229-16.577-6.458-24.938
			c-1.231-8.361-14.146-6.682-14.455-7.832c-0.31-1.151-25.528,2.23-27.682,2.096C149.55,74.044,149.244,80.999,149.244,80.999z"/>
		<path fill="none" stroke="#000000" stroke-width="0.9282" stroke-miterlimit="10" d="M227.209,185.376
			c0,0,8.775,53.383,8.492,57.502"/>
		<path fill="none" stroke="#000000" stroke-width="0.9282" stroke-miterlimit="10" d="M201.013,148.501
			c0,0,23.623,13.497,30.447,10.914c6.822-2.585-8.798,12.662-8.798,12.662l-18.087-11.547"/>
		<path fill="none" stroke="#000000" stroke-width="0.9282" stroke-miterlimit="10" d="M245.476,268.542
			c0,0,1.193-6.068-7.193-18.034c-0.598-12.252-4.279-26.062-5.696-33.487"/>
		<path fill="none" stroke="#000000" stroke-width="0.9282" stroke-miterlimit="10" d="M204.081,290.7
			c0,0,3.124,21.187,13.368-2.322c10.243-23.512,12.131-19.976,12.131-19.976"/>
		<path fill="none" stroke="#000000" stroke-width="0.9282" stroke-miterlimit="10" d="M152.318,278.389c0,0,4.278,19.594,17.1,20.3
			"/>
		<path fill="none" stroke="#000000" stroke-width="0.9282" stroke-miterlimit="10" d="M238.283,306.183
			c0.707-0.631-0.707,4.076,0,9.51"/>
		<path fill="none" stroke="#000000" stroke-width="0.9282" stroke-miterlimit="10" d="M133.863,278.784
			c0,0,6.079,24.578-3.385,38.786"/>
		<path fill="none" stroke="#000000" stroke-width="0.9282" stroke-miterlimit="10" d="M215.762,298.688
			c0,0,20.933-28.476,29.432-27.76c4.922,0.416,3.373-0.072,1.195-0.556c-1.58-0.354-3.493-0.703-3.493-0.703
			s-23.934-7.064-24.034-8.626"/>
		<path fill="none" stroke="#000000" stroke-width="0.9282" stroke-miterlimit="10" d="M222.818,186.092
			c0.993,3.581,6.093,15.64,5.384,18.782c-0.71,3.144-1.419,36.717,2.122,43.074"/>
		<path fill="none" stroke="#000000" stroke-width="0.9282" stroke-miterlimit="10" d="M211.066,197.695
			c0,0-2.549,19.35-1.416,19.782c1.133,0.428,1.133,9.171,2.691,10.317c1.558,1.146-4.535,24.219,2.407,27.085
			c6.938,2.866,1.273,5.73,3.539,6.161c2.266,0.43-2.975-55.706-1.985-73.21"/>
		<path fill="none" stroke="#000000" stroke-width="0.9282" stroke-miterlimit="10" d="M214.042,185.519
			c0,0-1.845-5.446-5.242-1.146c-3.399,4.298-12.324,10.892-11.191,11.752c1.136,0.86-2.262,3.458,6.801,8.75
			c9.064,5.292,3.965,5.723,3.965,5.723s-0.002-21.699-1.135-21.598c-1.131,0.102,9.066,13.735,8.5,15.875"/>
		<path fill="none" stroke="#000000" stroke-width="0.9282" stroke-miterlimit="10" d="M174.955,257.667
			c0,0-0.851,12.689-2.406,11.975c-1.559-0.719-3.541-6.299-3.968-9.242"/>
		<path fill="none" stroke="#000000" stroke-width="0.9282" stroke-miterlimit="10" d="M182.921,207.874
			c-1.379,0.431-3.578,21.007-3.578,21.007"/>
		<path fill="none" stroke="#000000" stroke-width="0.9282" stroke-miterlimit="10" d="M160.623,203.463
			c0,0,0.881,22.281,2.717,24.332"/>
		<path fill="none" stroke="#000000" stroke-width="0.9282" stroke-miterlimit="10" d="M214.042,262.461
			c0,0-10.479-55.57-14.871-59.377"/>
		<path fill="none" stroke="#000000" stroke-width="0.9282" stroke-miterlimit="10" d="M173.637,217.335
			c0,0,0.651,1.541,1.939,2.218"/>
		<path fill="none" stroke="#000000" stroke-width="0.9282" stroke-miterlimit="10" d="M177.673,218.543
			c0,0,0.923-2.979,0.923-3.599c0-0.802-4.959-3.58-4.959,1.231"/>
		<path fill="none" stroke="#000000" stroke-width="0.9282" stroke-miterlimit="10" d="M176.174,220.955v-3.618v-1.309
			c0,0-0.614-1.867-0.598-0.699"/>
		<path fill="none" stroke="#000000" stroke-width="0.9282" stroke-miterlimit="10" d="M173.291,219.96
			c-1.27-1.363,1.691,1.024,2.286,2.398"/>
		<path fill="none" stroke="#000000" stroke-width="0.9282" stroke-miterlimit="10" d="M175.577,223.338c0,0,0.121-0.427,0.389-0.98
			c0.44-0.898,1.273-2.132,2.631-2.397"/>
		<path fill="none" stroke="#000000" stroke-width="0.9282" stroke-miterlimit="10" d="M203.929,291.787
			c0.151-1.087-2.916-15.747-2.916-15.747c-0.566-0.002-15.152-69.886-15.152-69.886"/>
		<path fill="none" stroke="#000000" stroke-width="0.9282" stroke-miterlimit="10" d="M151.302,226.347
			c0,0,5.524-20.478,5.029-24.348"/>
		<path fill="none" stroke="#000000" stroke-width="0.9282" stroke-miterlimit="10" d="M91.322,257.667"/>
		<path fill="none" stroke="#000000" stroke-width="0.9282" stroke-miterlimit="10" d="M79.782,276.04c0,0,2.975-25.703,2.692,0"/>
		<path fill="none" stroke="#000000" stroke-width="0.9282" stroke-miterlimit="10" d="M90.545,276.04
			c-2.125-1.539,0.851-21.016-0.849-15.641"/>
		<path fill="none" stroke="#000000" stroke-width="0.9282" stroke-miterlimit="10" d="M86.437,206.874
			c0,0,3.539,21.434,9.771,24.475"/>
		<path fill="none" stroke="#000000" stroke-width="0.9282" stroke-miterlimit="10" d="M108.106,160.53
			c0,0,4.674-15.853,1.558,0.627s-6.232,38.551-5.523,43.136"/>
		<path fill="none" stroke="#000000" stroke-width="0.9282" stroke-miterlimit="10" d="M100.399,160.53c0,0,0.952,16.65,5.582,18.54
			"/>
		<path fill="none" stroke="#000000" stroke-width="0.9282" stroke-miterlimit="10" d="M92.715,177.797
			c0,0,1.795,12.022,11.426,16.32"/>
		<path fill="none" stroke="#000000" stroke-width="0.9282" stroke-miterlimit="10" d="M104.815,221.435
			c0,0,18.76-53.648,19.311-62.86"/>
		<path fill="none" stroke="#000000" stroke-width="0.9282" stroke-miterlimit="10" d="M69.505,257.667c0,0,24-91.833,30.894-97.137
			c6.899-5.305,4.968-7.059,4.968-7.059l14.068-4.97c0,0-17.655,64.202-18.758,71.333c-1.104,7.128,2.759,26.552,2.759,26.552
			l2.298,0.257c0,0,15.084-37.699,21.426-39.777c1.38-5.863,3.013-27.914,3.013-27.914"/>
		<path fill="none" stroke="#000000" stroke-width="0.9282" stroke-miterlimit="10" d="M124.125,277.474
			c0,0-8.439,5.078-9.655,9.967c-1.216,4.891-33.235,26.303-37.564,24.13"/>
		<path fill="none" stroke="#000000" stroke-width="0.9282" stroke-miterlimit="10" d="M92.655,247.948
			c0,0-23.149,1.525-32.528,28.092c0,0-8.245,33.755,16.779,35.53"/>
		<path fill="none" stroke="#000000" stroke-width="0.9282" stroke-miterlimit="10" d="M86.331,252.37
			c0,0-20.411,17.049-18.756,19.127"/>
		<path fill="none" stroke="#000000" stroke-width="0.9282" stroke-miterlimit="10" d="M113.612,250.508
			c0,0-4.934,13.856,2.515,23.906"/>
		<path fill="none" stroke="#000000" stroke-width="0.9282" stroke-miterlimit="10" d="M89.697,275.247c0,0-1.225,7.848,0.849,9.478
			"/>
		<path fill="none" stroke="#000000" stroke-width="0.9282" stroke-miterlimit="10" d="M98.471,250.508c0,0-7.171,15.155,0,25.532
			c0,0,9.051,6.782,13.539,8.685"/>
		<path fill="none" stroke="#000000" stroke-width="0.9282" stroke-miterlimit="10" d="M113.871,249.011c0,0-1.882-0.415-4.09-1.322
			c-2.207-0.907-6.895-1.738-9.379-1.046c-2.482,0.695-28.414,18.002-28.964,27.771"/>
		<path fill="none" stroke="#000000" stroke-width="1.5786" stroke-miterlimit="10" d="M140.285,269.111
			c1.42,0-2.252,1.276-2.297,3.328"/>
		<path fill="none" stroke="#000000" stroke-width="1.5786" stroke-miterlimit="10" d="M122.624,266.849c0,0,1.398,2.32,4.32,2.793
			c2.92,0.471,6.61-0.94,7.534,0c0.669,0.679,2.879,1.852,3.51,2.798c0.095,0.142,0.154,0.279,0.167,0.407
			c0.02,0.197-0.065,0.378-0.294,0.533c-1.383,0.934-9.073,3.298-9.842,2.66c-0.769-0.639-8.459-0.171-9.227-2.816
			c-0.767-2.646,4.305-3.268,6.46-2.646c2.152,0.624,10.147-0.621,11.53,1.868"/>
		<path fill="none" stroke="#000000" stroke-width="0.9282" stroke-miterlimit="10" d="M278.542,220.829
			c0,0,27.558,5.619,31.249-17.366c3.691-22.983,0-28.585,0-28.585l-1.845-18.051l-2.461-13.071l-5.025-3.735l-2-17.463L296.918,121
			l-4.621-12.734c0,0,1.542-7.796,1.282-11.175c-0.256-3.377,0.771-13.253-0.512-17.15c-1.285-3.9-1.54,3.897-6.677,3.638
			c-1.286-0.066-1.912-0.072-2.097-0.126c-0.554-0.162,2.865-0.749,4.405-4.606c0.806-2.016,1.651-3.642,2.349-5.327
			c1.086-2.613,1.817-5.369,1.506-9.952c-0.514-7.537-0.362,6.388-7.391,9.635"/>
		<path fill="none" stroke="#000000" stroke-width="0.9282" stroke-miterlimit="10" d="M282.226,82.33
			c-0.577-2.334,2.171-7.119,2.01-7.936c-0.065-0.317-0.765-0.247-1.749-0.031c-1.555,0.343-3.826,1.055-5.449,1.198
			c-1.561,0.137-1.806,2.942-1.812,5.252c-0.006,1.613,0.108,2.987-0.035,3.034c-0.346,0.116,1.614,2.452,3.229,1.401
			c1.614-1.051,3.461-4.318,3.691-6.886"/>
		<path fill="none" stroke="#000000" stroke-width="0.9282" stroke-miterlimit="10" d="M266.541,71.71
			c0,0-1.499,12.253-2.537,15.988c-1.038,3.734,5.19,17.389,5.998,20.308c0.806,2.917,3.92,15.521,3.459,15.637
			c-0.462,0.117,22.034-2.457,23.878-2.22"/>
		<path fill="none" stroke="#000000" stroke-width="0.9282" stroke-miterlimit="10" d="M275.292,173.765
			c0,0-6.099-4.956-10.251-9.508c-4.15-4.55-12.456-8.051-12.456-8.051s1.383-3.036-6.345-5.603c0,0-13.001-6.855-17.243-7.267"/>
		<path fill="none" stroke="#000000" stroke-width="0.9282" stroke-miterlimit="10" d="M272.999,123.761c0,0-1.268-0.701-1.268,0
			c0,0.699,3.46,15.988,0,22.64c-3.461,6.653,1.192,5.72,0.77,6.42l3.03,29.898"/>
		<path fill="none" stroke="#000000" stroke-width="0.9282" stroke-miterlimit="10" d="M287.319,81.13c0,0,0.42-4.471-4.492-2.645
			c-1.948,0.723,0.659,4.9,1.468,4.966"/>
		<path fill="none" stroke="#000000" stroke-width="0.9282" stroke-miterlimit="10" d="M275.531-16.08
			c0,0-19.37,50.445-12.449,80.671c4.268,11.554,11.223,10.267,12.069,10.971"/>
		<path fill="none" stroke="#000000" stroke-width="0.9282" stroke-miterlimit="10" d="M278.542-11.245
			c0,0-14.539,45.025-13.04,60.78c1.499,15.756,5.536,24.508,13.61,22.174c8.073-2.334,12.918-13.071,12.572-22.523
			C291.338,39.732,278.542-11.245,278.542-11.245"/>
		<path fill="none" stroke="#000000" stroke-width="0.9282" stroke-miterlimit="10" d="M287.328,2.179
			c0,0,9.626,37.437,7.026,53.312c-0.456,2.767-1.24,5.07-1.937,6.471"/>
		<path fill="none" stroke="#000000" stroke-width="0.9282" stroke-miterlimit="10" d="M292.679,79.063
			c-3.53,7.001,6.765-5.948,1.675-23.572"/>
		<path fill="none" stroke="#000000" stroke-width="0.9282" stroke-miterlimit="10" d="M275.247,79.849c0,0,5.712-5.435,5.365,1.15"
			/>
		<path fill="none" stroke="#000000" stroke-width="0.9282" stroke-miterlimit="10" d="M271.615,63.423c0,0-2.537-4.318,1.499-4.435
			c4.038-0.117,5.378,1.751,4.822,2.802c-0.554,1.05-2.395,3.15-3.494,3.15C273.347,64.941,271.615,63.423,271.615,63.423z"/>
		<path fill="none" stroke="#000000" stroke-width="0.9282" stroke-miterlimit="10" d="M271.734,69.955c0,0,1.206-5.014,1.957-5.014
			"/>
		<path fill="none" stroke="#000000" stroke-width="0.9282" stroke-miterlimit="10" d="M277.936,61.791c0,0,5.573,2.8,4.183,4.434
			c-1.392,1.634-3.576,4.902-3.576,4.902"/>
		<path fill="none" stroke="#000000" stroke-width="0.9282" stroke-miterlimit="10" d="M281.303,66.458c0,0,3.336-0.248,3.86,1.451"
			/>
		<path fill="none" stroke="#000000" stroke-width="0.9282" stroke-miterlimit="10" d="M270.829,74.352c0,0-1.578,6.275,1.885,5.498
			c3.463-0.777,2.438-1.802,2.438-1.802"/>
		<path fill="none" stroke="#000000" stroke-width="0.9282" stroke-miterlimit="10" d="M282.119,100.536
			c0,0-1.504-13.163-7.677-17.084c-1.017-0.541-6.863,6.347-7.325,6.464"/>
		<path fill="none" stroke="#000000" stroke-width="0.9282" stroke-miterlimit="10" d="M270.829,58.984
			c0,0-1.055-46.328,1.885-46.328"/>
		<path fill="none" stroke="#000000" stroke-width="0.9282" stroke-miterlimit="10" d="M268.272,25.611
			c0,0-1.173,39.446,0.394,39.33"/>
		<path fill="none" stroke="#000000" stroke-width="0.9282" stroke-miterlimit="10" d="M275.421,0.437
			c0,0,11.082,35.223,15.184,40.411"/>
		<path fill="none" stroke="#000000" stroke-width="0.9282" stroke-miterlimit="10" d="M273.033,8.246
			c0,0,16.695,39.562,17.572,47.942"/>
		<path fill="none" stroke="#000000" stroke-width="0.9282" stroke-miterlimit="10" d="M303.333,146.751
			c0,0-6.112,0.118-13.378,1.518c-7.268,1.4-15.34,2.8-15.916,1.4"/>
		<path fill="none" stroke="#000000" stroke-width="0.9282" stroke-miterlimit="10" d="M299.671,207.874
			c0,0-4.085,13.14-15.432,12.874c-0.169-0.003-0.34-0.014-0.514-0.033"/>
		<path fill="none" stroke="#000000" stroke-width="0.9282" stroke-miterlimit="10" d="M251.85,157.288
			c0,0-11.898,11.894-7.506,27.084"/>
		<path fill="none" stroke="#000000" stroke-width="0.9282" stroke-miterlimit="10" d="M104.815,296.671
			c0,0-2.855,17.391-2.891,19.021"/>
		<path fill="none" stroke="#000000" stroke-width="0.9282" stroke-miterlimit="10" d="M95.284,303.362"/>
		<path fill="none" stroke="#000000" stroke-width="0.9282" stroke-miterlimit="10" d="M243.777,276.04
			c-0.566-0.002,0-2.961,0-2.961s-1.979,21.413-1.136,23.592c0.843,2.18-16.374,12.502-20.127,16.305"/>
		<path fill="none" stroke="#000000" stroke-width="0.9282" stroke-miterlimit="10" d="M284.24,220.748
			c-22.89,1.396-41.344-15.874-41.344-15.874s-0.679,51.781,0.175,53.772"/>
		<path fill="none" stroke="#000000" stroke-width="0.9282" stroke-miterlimit="10" d="M257.544,209.538
			c0,0-3.475-15.447,7.035-21.707"/>
		<path fill="none" stroke="#000000" stroke-width="0.9282" stroke-miterlimit="10" d="M268.502,201.253
			c0,0,1.268-5.484,6.459-7.118"/>
		<path fill="none" stroke="#000000" stroke-width="0.9282" stroke-miterlimit="10" d="M160.623,261.864
			c0,0-8.15,1.711-10.765,3.266"/>
		<path fill="none" stroke="#000000" stroke-width="0.9282" stroke-miterlimit="10" d="M142.015,252.37
			c0.308,2.024,0.769,2.179,0,3.734"/>
		<path fill="none" stroke="#000000" stroke-width="0.9282" stroke-miterlimit="10" d="M145.09,244.278c0,0,1.383,3.707,0,4.732"/>
		<path fill="none" stroke="#000000" stroke-width="0.9282" stroke-miterlimit="10" d="M165.573,247.514
			c0,0-12.945,3.146-18.481,2.989"/>
		<path fill="none" stroke="#000000" stroke-width="0.9282" stroke-miterlimit="10" d="M142.015,261.864
			c0,0,1.078,2.486,3.075,3.266"/>
		<path fill="none" stroke="#000000" stroke-width="0.9282" stroke-miterlimit="10" d="M147.091,236.558
			c0,0-3.538,0.408-3.538-1.459"/>
		<path fill="none" stroke="#000000" stroke-width="0.9282" stroke-miterlimit="10" d="M147.091,234.786c0,0,0.922-1.712,3.69-1.4
			c2.768,0.312,29.373,1.712,29.835,1.4c0.46-0.31,3.496,0.482,3.769,2.335c0.27,1.853,0,2.646,0,2.646"/>
		<path fill="none" stroke="#000000" stroke-width="0.9282" stroke-miterlimit="10" d="M162.776,242.878
			c0,0-1.327,0.902,0.923,4.491c1.029,1.642,3.453-0.727,3.453-0.727"/>
		<path fill="none" stroke="#000000" stroke-width="0.9282" stroke-miterlimit="10" d="M182.921,245.728c0,0-1.113,2.315,0,3.283"/>
		<path fill="none" stroke="#000000" stroke-width="0.9282" stroke-miterlimit="10" d="M184.385,243.851
			c0,0,4.842-0.998,4.458,3.838"/>
		<path fill="none" stroke="#000000" stroke-width="0.9282" stroke-miterlimit="10" d="M162.298,228.881
			c0,0,1.338-1.734-2.006-3.089c-3.35-1.354-9.94,1.056-14.007,1.543c-4.064,0.489-14.551,15.192-16.113,14.501
			c-1.561-0.692-6.468,5.626-7.36,9.465c-0.893,3.836-0.446,11.287,0,11.964c0.446,0.678,4.908,1.58,5.578,1.806
			c0.668,0.227,10.037-0.226,12.271,3.16c2.229,3.388,12.716-0.452,12.269,0c-0.447,0.453,8.784-5.191,9.633-6.547
			c0.854-1.354,4.675-0.91,6.519-2.622c1.845-1.711,10.151-2.957,10.612-4.201c0.462-1.245,6.15-2.646,6.303-3.579
			c0.155-0.934,2.31-0.186,2.848-2.271c-0.433-0.623-6.845,1.648-6.845,1.648s-14.708,5.134-16.426,5.134
			c-1.721,0-3.874,1.4-4.337,0.935c-0.457-0.466-14.763,1.555-17.528,1.245"/>
		<path fill="none" stroke="#000000" stroke-width="0.9282" stroke-miterlimit="10" d="M148.914,241.836l-2.231-7.69
			c0,0-0.894-3.387,0-4.064c0.895-0.677,33.241,0,33.241,0s5.354-2.316,4.907,5.727c-0.445,8.043-0.445,8.043-0.445,8.043
			s-13.831,3.838-16.953,3.838c-3.126,0,3.79-2.453,0.222-5.853C165.708,240.798,150.474,241.625,148.914,241.836z"/>
		<path fill="none" stroke="#000000" stroke-width="1.5786" stroke-miterlimit="10" d="M130.172,241.836
			c0,0-6.459-3.376-11.841,3.892c-5.382,7.267-4.921,2.255-4.46,3.283c0.461,1.027,2,1.657,2.769,1.497
			c0.767-0.16-1.539,10.73,0,14.622c1.539,3.893,0.154,4.512,0.154,4.512l1.231,0.936c0,0,3.165-3.266,4.274-2.956
			c1.106,0.312-0.406-2.491-0.406-2.491s-3.101-6.999-1.717-13.69c1.385-6.693,2.124-4.797,2.124-4.797s2.49-5.167,5.105-3.765"/>
		<path fill="none" stroke="#000000" stroke-width="0.8791" stroke-miterlimit="10" d="M-88.588,54.602L21.925,80.431
			c0,0,4.079,1.271,4.079,9.788c0,8.517-7.577,122.098-7.577,122.098s1.374,8.427-5.532,8.832
			c-6.906,0.405-47.364,8.287-47.364,8.287"/>
	</g>
	<g>
		<path fill="#29ABE2" d="M141.44,152.773c-0.156,0.556-0.363,1.084-0.602,1.578c-0.275-0.219-0.771-0.543-1.229-0.813l1.242,3.954
			c1.712,1.824,3.405,1.28,5.493,0.608c1.354-0.436,2.997-1.008,4.113-1.477c-0.062,0.591-0.05,1.687,0.063,2.311
			c-0.81,0.326-1.95,0.716-3.06,1.072c-2.804,0.902-4.703,1.513-6.911-0.438c-0.414,1.056-0.853,2.099-1.235,2.926
			c0.069,0.22,0.044,0.338-0.08,0.466l-1.775-1.893c0.514-0.803,1.084-1.823,1.554-2.831l-1.418-4.514l-1.41,0.454
			c0.339,0.551,0.59,1.085,0.759,1.625c1.004,3.195-0.482,3.673-1.705,4.067c-0.188-0.533-0.602-1.324-0.96-1.736
			c0.233-0.052,0.44-0.119,0.608-0.173c0.546-0.175,0.37-0.934,0.113-1.753c-0.32-1.018-1.01-2.225-2.359-3.484
			c-0.106-1.396-0.37-3.356-0.597-4.867l-1.034,0.333l4.982,15.859l-1.957,0.629l-5.652-17.995l3.687-1.186l0.257-0.17l1.38,0.303
			l1.392-1.371c1.028,0.833,2.183,2.002,2.734,2.903l-1.555,1.578c-0.471-0.839-1.467-1.97-2.428-2.848
			c-0.006,0.046-0.019,0.072-0.031,0.097c0.17,1.794,0.384,4.254,0.473,5.986c0.814,0.749,1.41,1.459,1.855,2.15l-0.596-1.896
			l3.311-1.065l0.427,1.357c0.552-1.541,0.689-3.476,0.538-5.605l-1.824,0.587l-0.634-2.017l2.22-0.714
			c-0.132-0.816-0.276-1.67-0.459-2.514l2.559-0.361c0.031,0.167-0.106,0.321-0.363,0.427c0.106,0.602,0.214,1.206,0.295,1.795
			l4.27-1.373l0.635,2.017l-4.646,1.494l0.075,1.428l4.345-1.398l2.548,8.109c0.495,1.577,0.145,2.109-2.131,2.841
			c-0.227-0.521-0.685-1.188-1.061-1.595c0.439-0.119,0.872-0.258,1.003-0.3c0.163-0.075,0.201-0.153,0.145-0.333l-0.307-0.979
			l-2.334,0.75l0.91,2.896l-1.9,0.611L141.44,152.773z M145.109,149.614l-0.289-0.918l-2.333,0.75l0.288,0.918L145.109,149.614z
			 M143.61,153.021l2.333-0.75l-0.295-0.938l-2.333,0.75L143.61,153.021z"/>
		<path fill="#29ABE2" d="M153.73,145.961c0.896,0.547,3.167,2.105,3.706,2.502l-0.671,2.349c-0.502-0.543-1.342-1.306-2.15-2.035
			l2.635,8.389l-2.163,0.696l-2.504-7.97c-0.044,1.971-0.263,3.846-0.72,5.224c-0.42-0.612-1.236-1.428-1.781-1.912
			c0.721-1.991,0.996-5.07,0.82-7.674l-2.445,0.787l-0.709-2.258l2.727-0.877l-1.305-4.154l2.703-0.693
			c0.044,0.205-0.058,0.347-0.371,0.537l1.137,3.614l2.352-0.756l0.709,2.258l-2.352,0.756L153.73,145.961z M166.448,150.447
			c0.169,0.54,0.275,0.813,0.363,0.895c0.057,0.047,0.145,0.063,0.238,0.033c0.433-0.139,0.489-0.157,0.526-0.3
			c0.113-0.301-0.495-2.238-0.859-3.396c0.559,0.259,1.311,0.413,1.938,0.431c0.909,3.292,1.304,4.748-0.539,5.341l-1.054,0.338
			c-0.471,0.151-1.053,0.141-1.485-0.115c-0.502-0.279-0.804-0.709-1.349-2.448l-3.783-12.042l-2.371,0.762l1.33,4.233
			c1.067,3.396,2.152,8.368,0.322,12.167c-0.495-0.325-1.631-0.839-2.232-0.974c1.686-3.468,0.676-7.476-0.277-10.511l-2.039-6.491
			l6.791-2.184L166.448,150.447z"/>
	</g>
	<g>
		<path fill="#29ABE2" d="M133.929,196.818c-0.051,0.085-0.169,0.136-0.304,0.136c-0.05,0-0.101,0-0.151-0.017
			c-1.245,1.106-3.097,2.4-4.662,3.218c-0.37-0.357-1.026-0.987-1.464-1.311c1.582-0.698,3.399-1.925,4.493-3.015L133.929,196.818z
			 M133.239,193.583c-0.051,0.085-0.168,0.136-0.303,0.136c-0.034,0-0.084,0-0.135-0.017c-1.077,0.834-2.643,1.839-3.955,2.485
			c-0.303-0.34-0.893-0.919-1.296-1.209c1.296-0.545,2.811-1.464,3.77-2.299L133.239,193.583z M127.6,191.25l1.516-0.086v-4.546
			h-1.297v-1.448h8.314v0.698h5.234l0.32-0.085l1.312,0.63c-0.051,0.103-0.135,0.171-0.235,0.238
			c-0.455,1.142-1.128,2.163-1.97,3.031c0.993,0.579,1.936,1.158,2.575,1.652l-1.464,1.379c-0.606-0.511-1.532-1.124-2.559-1.771
			c-0.926,0.698-1.969,1.26-3.046,1.686c-0.253-0.426-0.741-1.073-1.111-1.431c0.858-0.289,1.717-0.715,2.508-1.243
			c-0.623-0.34-1.229-0.681-1.784-0.971l1.347-1.191c0.572,0.289,1.229,0.612,1.901,0.971c0.404-0.392,0.774-0.835,1.077-1.295
			h-4.393v-0.851h-0.74v6.386h-1.817v-0.767c-1.868,0.17-3.687,0.323-4.932,0.426c-0.017,0.136-0.151,0.222-0.27,0.238L127.6,191.25
			z M133.29,186.618h-2.373v0.697h2.373V186.618z M130.917,188.439v0.698h2.373v-0.698H130.917z M130.917,190.279v0.783
			c0.757-0.034,1.564-0.085,2.373-0.153v-0.63H130.917z M139.5,193.31c-0.067,0.068-0.168,0.12-0.303,0.12
			c-0.051,0-0.101,0-0.151-0.018c-0.472,0.29-1.01,0.579-1.582,0.852c0.235,0.409,0.521,0.801,0.841,1.175
			c0.993-0.63,2.121-1.481,2.845-2.162l1.801,1.243c-0.067,0.067-0.185,0.119-0.319,0.119c-0.051,0-0.118,0-0.169-0.018
			c-0.773,0.597-1.985,1.396-3.013,1.958c1.077,0.886,2.373,1.584,3.838,1.993c-0.438,0.392-1.026,1.191-1.312,1.72
			c-2.391-0.852-4.275-2.452-5.604-4.547v4.717h-2.003v-4.87c-0.522,0.188-1.044,0.375-1.549,0.528
			c-0.235-0.375-0.757-1.09-1.077-1.431c2.036-0.511,4.511-1.447,5.958-2.384L139.5,193.31z"/>
		<path fill="#29ABE2" d="M148.287,191.437v-1.26c-0.909,0.63-1.885,1.227-2.895,1.703c-0.235-0.46-0.758-1.261-1.179-1.669
			c2.929-1.312,5.689-3.78,6.935-5.824l2.727,0.137c-0.051,0.17-0.202,0.307-0.438,0.341c1.565,2.128,4.393,4.053,6.951,4.989
			c-0.505,0.511-0.96,1.243-1.313,1.873c-0.942-0.443-1.936-1.021-2.878-1.669v1.379H148.287z M145.274,194.758v-1.907h14.054v1.907
			h-7.91l0.505,0.17c-0.067,0.137-0.236,0.204-0.505,0.204c-0.354,0.835-0.842,1.806-1.347,2.708
			c1.666-0.034,3.483-0.085,5.302-0.137c-0.572-0.664-1.179-1.311-1.768-1.855l1.784-0.937c1.515,1.328,3.097,3.116,3.888,4.41
			l-1.885,1.158c-0.186-0.341-0.438-0.716-0.724-1.124c-3.804,0.238-7.709,0.442-10.283,0.562c-0.034,0.153-0.169,0.256-0.32,0.272
			l-0.707-2.247c0.707-0.018,1.549-0.018,2.491-0.052c0.488-0.953,0.977-2.111,1.347-3.133H145.274z M155.507,189.563
			c-1.313-0.987-2.508-2.111-3.282-3.185c-0.724,1.039-1.817,2.163-3.131,3.185H155.507z"/>
	</g>
	<g>
		<path fill="#29ABE2" d="M175.458,176.741c-0.373,1.272-0.559,1.76-0.947,2.577c-0.59,1.241-1.289,2.279-2.283,3.363
			c0.854,0.802,1.739,1.431,2.812,2.027c1.196,0.66,2.05,1.006,3.604,1.431c-0.311,0.314-0.497,0.597-0.684,1.037
			c-2.688-0.896-4.676-2.059-6.446-3.772c-1.849,1.729-3.977,2.955-6.509,3.757c-0.187-0.425-0.357-0.66-0.652-0.975
			c2.563-0.707,4.676-1.854,6.446-3.489c-0.745-0.817-1.336-1.619-1.879-2.577c-0.637-1.069-0.933-1.792-1.445-3.379h-1.149
			c-0.776,0-1.258,0.031-1.724,0.094v-1.116c0.481,0.079,1.01,0.11,1.739,0.11h4.458v-1.226c0-0.534-0.03-0.943-0.108-1.352h1.243
			c-0.078,0.377-0.109,0.817-0.109,1.336v1.241h4.847c0.761,0,1.305-0.031,1.771-0.11v1.116c-0.435-0.062-0.9-0.094-1.739-0.094
			H175.458z M168.546,176.741c0.419,1.367,0.684,1.995,1.273,3.001c0.513,0.85,0.979,1.462,1.693,2.248
			c1.352-1.493,2.206-3.081,2.812-5.249H168.546z"/>
		<path fill="#29ABE2" d="M188.681,174.934v-0.613c0-0.393-0.031-0.754-0.093-1.132h1.134c-0.047,0.378-0.078,0.724-0.078,1.132
			v0.613h2.485c0.823,0,1.29-0.031,1.74-0.095v1.101c-0.435-0.063-0.947-0.079-1.74-0.079h-2.485v0.487
			c0,0.377,0.031,0.66,0.078,1.021h-1.103c0.046-0.346,0.062-0.612,0.062-1.021v-0.487h-3.541v0.487c0,0.44,0.015,0.724,0.062,1.021
			h-1.134c0.062-0.361,0.093-0.676,0.093-1.021v-0.487h-2.252c-0.792,0-1.289,0.016-1.725,0.079v-1.101
			c0.451,0.063,0.917,0.095,1.725,0.095h2.252v-0.613c0-0.393-0.03-0.723-0.093-1.132h1.149c-0.047,0.394-0.077,0.708-0.077,1.132
			v0.613H188.681z M190.918,179.192c-0.808,0.283-0.901,0.33-1.507,0.66c-1.243,0.676-3.573,2.043-4.07,2.373
			c-1.895,1.273-2.718,2.169-2.718,2.924c0,0.519,0.264,0.676,1.242,0.77c0.684,0.063,2.159,0.095,4.226,0.095
			c1.103,0,2.065-0.063,2.625-0.173c0.56-0.095,0.87-0.361,1.057-0.864c0.108-0.299,0.155-0.613,0.217-1.557
			c0.451,0.236,0.621,0.299,1.057,0.409c-0.187,1.524-0.436,2.169-0.979,2.577c-0.621,0.44-1.601,0.55-5.22,0.55
			c-2.47,0-3.619-0.078-4.303-0.282c-0.605-0.173-0.994-0.707-0.994-1.352c0-1.116,0.979-2.248,3.263-3.772
			c0.854-0.565,1.429-0.927,2.268-1.414c0.839-0.503,0.839-0.503,1.46-0.88h-5.002c-0.637,0-0.994,0.016-1.382,0.078v-1.037
			c0.403,0.062,0.698,0.078,1.382,0.078h5.53c0.792,0,1.01-0.016,1.336-0.078L190.918,179.192z"/>
	</g>
	<g>
		<path fill="#29ABE2" d="M223.936,190.759c0.67,1.135,1.415,2.126,2.264,2.996c1.211-1.159,2.523-2.594,3.36-3.707l3.104,1.625
			c-0.096,0.173-0.406,0.283-0.735,0.295c-0.938,0.978-2.446,2.321-3.773,3.398c1.798,1.177,3.944,1.902,6.545,2.052
			c-0.549,0.748-1.153,2.151-1.423,3.028c-5.565-0.615-9.086-3.525-11.83-8.416c-0.831,1.009-1.823,1.972-2.899,2.898l0.608-0.013
			c-0.007,0.232-0.167,0.469-0.575,0.598l0.676,3.635c1.872-0.614,3.858-1.303,5.771-1.976l0.619,2.51
			c-3.54,1.37-7.281,2.753-9.69,3.625c-0.008,0.232-0.152,0.415-0.34,0.502l-1.715-2.92c0.724-0.215,1.562-0.504,2.479-0.78
			l-0.574-3.087c-1.039,0.713-2.117,1.356-3.164,1.891c-0.548-0.617-1.617-1.573-2.348-2.078c2.675-1.231,5.474-3.026,7.518-4.91
			l-7.822,1.49l-0.468-2.515l9.79-1.864l-0.273-1.468l-7.06,1.344l-0.449-2.414l7.06-1.344l-0.259-1.394l-8.339,1.588l-0.472-2.539
			l8.338-1.588l-0.394-2.115l3.678-0.494c0.026,0.277-0.123,0.436-0.571,0.623l0.264,1.419l8.658-1.649l0.473,2.539l-8.658,1.649
			l0.259,1.394l7.601-1.447l0.449,2.414l-7.601,1.447l0.273,1.468l9.912-1.888l0.468,2.515L223.936,190.759z"/>
		<path fill="#29ABE2" d="M244.724,191.231l-5.929,1.129l0.403,2.165l-2.73,0.521l-3.259-17.521l8.658-1.649L244.724,191.231z
			 M239.642,179.108l-3.198,0.609l0.662,3.559l3.198-0.609L239.642,179.108z M238.292,189.647l3.198-0.609l-0.69-3.709l-3.198,0.609
			L238.292,189.647z M254.692,173.072l3.542,19.039c0.546,2.937-0.571,3.639-5.122,4.506c-0.275-0.798-1.013-2.022-1.569-2.69
			c0.668-0.102,1.386-0.212,1.977-0.324c1.82-0.348,1.894-0.361,1.783-0.958l-0.824-4.431l-5.83,1.11
			c-0.079,3.133-0.852,6.373-3.247,8.968c-0.55-0.488-1.899-1.313-2.584-1.568c3.603-3.909,3.102-8.657,2.394-12.466l-1.686-9.059
			L254.692,173.072z M252.279,176.393l-5.338,1.017l0.598,3.211l5.337-1.017L252.279,176.393z M248.039,183.307
			c0.181,0.971,0.37,1.991,0.479,3.26l5.461-1.04l-0.603-3.236L248.039,183.307z"/>
	</g>
	<g>
		<path fill="#29ABE2" d="M182.483,209.241l-5.966,0.384c-0.004,0.532-0.019,1.075-0.056,1.635l3.62-0.233l0.314-0.058l0.872,0.092
			c-0.006,0.112-0.019,0.297-0.034,0.435c-0.012,3.497-0.179,4.903-0.643,5.478c-0.406,0.521-0.86,0.673-2.112,0.754
			c-0.39,0.025-0.827,0.042-1.267,0.044c-0.051-0.416-0.308-1.018-0.613-1.417c0.855,0.031,1.719-0.024,2.071-0.047
			c0.268-0.018,0.436-0.053,0.585-0.199c0.299-0.291,0.449-1.388,0.477-3.663l-3.414,0.22c-0.322,2.06-1.17,4.091-3.567,5.544
			c-0.232-0.394-0.703-0.895-1.111-1.177c3.208-1.764,3.319-4.638,3.286-7.303l-3.512,0.226l-0.09-1.416l4.703-0.303l-0.128-2.029
			l1.853-0.021c-0.004,0.124-0.097,0.204-0.312,0.269l0.106,1.685l4.849-0.312L182.483,209.241z"/>
		<path fill="#29ABE2" d="M194.11,207.169l0.492,7.813c0.098,1.551-0.548,1.765-2.979,1.921c-0.075-0.414-0.349-1.076-0.58-1.457
			c0.402-0.001,0.841-0.017,1.182-0.038c0.874-0.057,0.923-0.06,0.904-0.355l-0.399-6.35l-7.218,0.465l0.509,8.085l-1.458,0.094
			l-0.6-9.524l3.342-0.215c0.237-0.683,0.442-1.486,0.562-2.124l2.02,0.303c-0.029,0.112-0.147,0.169-0.329,0.193
			c-0.153,0.467-0.375,1.013-0.6,1.521L194.11,207.169z M191.845,214.233l-3.475,0.224l0.054,0.862l-1.312,0.085l-0.322-5.107
			l4.787-0.309L191.845,214.233z M190.323,211.366l-2.139,0.138l0.104,1.661l2.139-0.138L190.323,211.366z"/>
	</g>
	<g>
		<path fill="#29ABE2" d="M230.075,149.237c-0.062,0.156-0.189,0.268-0.357,0.335c-0.631,1.744-1.536,3.465-2.609,5.029
			c1.031,0.76,2.777,2.124,3.262,2.526l-1.473,2.213c-0.484-0.626-1.305-1.498-2.104-2.28v8.249h-2.504v-7.265
			c-0.82,0.827-1.662,1.52-2.525,2.101c-0.21-0.693-0.82-2.012-1.22-2.526c2.419-1.431,4.734-4.001,6.144-6.84h-5.491v-2.415h3.093
			v-4.158l3.072,0.179c-0.021,0.224-0.189,0.358-0.568,0.425v3.554h1.241l0.379-0.111L230.075,149.237z M236.409,162.001h4.523
			v2.638h-12.035v-2.638h4.902v-8.249h-4.04v-2.593h4.04v-6.751l3.178,0.201c-0.021,0.224-0.189,0.358-0.568,0.425v6.125h4.019
			v2.593h-4.019V162.001z"/>
	</g>
	<g>
		<path fill="#29ABE2" d="M93.604,161.571c-0.544-0.337-0.909-0.545-1.324-0.765c0.227-0.283,0.402-0.544,0.743-1.107l0.665-1.1
			c0.268-0.443,0.456-0.786,0.603-1.119c0.382,0.272,0.758,0.523,1.262,0.836l5.146,3.185c0.518,0.319,0.937,0.561,1.298,0.747
			c-0.213,0.292-0.405,0.579-0.696,1.062l-0.665,1.1c-0.356,0.59-0.511,0.845-0.649,1.165c-0.448-0.314-0.812-0.558-1.328-0.877
			l-1.737-1.075l-0.405,0.67l3.036,1.88c0.65,0.402,1.03,0.618,1.347,0.759c-0.227,0.283-0.419,0.57-0.784,1.174l-1.086,1.797
			c-0.632,1.046-1.197,1.047-2.907-0.012c-0.172-0.106-0.43-0.284-0.898-0.594c0.334-0.732,0.43-1.042,0.547-1.78
			c0.453,0.336,0.889,0.643,1.22,0.848c0.357,0.221,0.496,0.233,0.626,0.019l0.6-0.992l-2.599-1.608l-1.11,1.837
			c-0.422,0.697-0.612,1.041-0.817,1.503l-1.856-1.148c0.32-0.41,0.582-0.783,0.963-1.413l1.11-1.837l-2.4-1.485l-0.876,1.448
			c-0.381,0.63-0.562,0.96-0.752,1.396l-1.843-1.141c0.32-0.41,0.582-0.782,0.931-1.359l1.135-1.877
			c0.259-0.43,0.425-0.732,0.588-1.093c0.32,0.254,0.656,0.48,1.16,0.792l2.957,1.83l0.405-0.67L93.604,161.571z M98.897,156.462
			c0.228-0.375,0.379-0.687,0.518-1.007l1.856,1.149c-0.215,0.235-0.415,0.536-0.658,0.938l-0.446,0.738l0.889,0.55
			c0.733-0.339,1.283-0.644,1.892-1.078l1.387,1.503c-1.058,0.543-1.058,0.543-1.448,0.707l0.929,0.575
			c0.796,0.492,1.056,0.634,1.425,0.808c-0.229,0.318-0.454,0.659-0.811,1.25l-0.584,0.965c-0.251,0.416-0.392,0.679-0.558,1.074
			l-1.737-1.075l1.029-1.704l-8.221-5.088l-1.021,1.69l-1.737-1.075c0.251-0.324,0.456-0.603,0.691-0.992l0.583-0.966
			c0.3-0.496,0.49-0.84,0.71-1.294c0.347,0.271,0.695,0.505,1.227,0.834l0.981,0.607c0.047-0.653,0.033-1.049-0.054-1.691
			l1.899,0.567c0.059,0.958,0.05,1.394-0.029,2.249l0.835,0.517L98.897,156.462z M95.189,159.824l-0.438,0.724l4.35,2.692
			l0.438-0.725L95.189,159.824z"/>
		<path fill="#29ABE2" d="M106.859,169.774c-0.544-0.337-0.909-0.545-1.324-0.765c0.227-0.284,0.402-0.544,0.743-1.106l0.665-1.1
			c0.268-0.443,0.456-0.787,0.603-1.119c0.382,0.272,0.758,0.523,1.263,0.836l5.145,3.184c0.518,0.32,0.937,0.562,1.298,0.748
			c-0.213,0.292-0.405,0.578-0.696,1.062l-0.665,1.1c-0.356,0.59-0.511,0.845-0.649,1.165c-0.448-0.314-0.812-0.558-1.328-0.878
			l-1.737-1.075l-0.405,0.671l3.036,1.879c0.65,0.403,1.03,0.619,1.347,0.759c-0.227,0.284-0.419,0.571-0.784,1.175l-1.086,1.797
			c-0.632,1.046-1.197,1.047-2.907-0.012c-0.172-0.106-0.43-0.284-0.898-0.594c0.334-0.732,0.43-1.042,0.547-1.78
			c0.453,0.336,0.889,0.642,1.22,0.847c0.357,0.222,0.496,0.234,0.626,0.02l0.6-0.992l-2.599-1.609l-1.11,1.837
			c-0.422,0.698-0.612,1.041-0.817,1.504l-1.856-1.148c0.32-0.41,0.582-0.783,0.963-1.414l1.11-1.837l-2.399-1.484l-0.876,1.448
			c-0.381,0.631-0.562,0.96-0.752,1.396l-1.844-1.142c0.32-0.409,0.582-0.781,0.931-1.358l1.135-1.878
			c0.259-0.429,0.425-0.731,0.588-1.092c0.32,0.254,0.656,0.48,1.16,0.792l2.957,1.83l0.405-0.671L106.859,169.774z
			 M112.152,164.665c0.228-0.375,0.379-0.687,0.518-1.006l1.856,1.149c-0.215,0.235-0.415,0.535-0.658,0.938l-0.446,0.737
			l0.889,0.55c0.733-0.338,1.283-0.643,1.892-1.078l1.387,1.504c-1.058,0.543-1.058,0.543-1.448,0.707l0.929,0.575
			c0.796,0.492,1.056,0.634,1.425,0.808c-0.229,0.318-0.454,0.659-0.811,1.249l-0.584,0.966c-0.251,0.415-0.392,0.679-0.558,1.073
			l-1.737-1.074l1.029-1.704l-8.221-5.087l-1.021,1.69l-1.737-1.075c0.251-0.324,0.456-0.603,0.691-0.992l0.583-0.965
			c0.3-0.497,0.49-0.84,0.71-1.294c0.347,0.271,0.695,0.505,1.227,0.834l0.981,0.607c0.047-0.653,0.033-1.049-0.054-1.692
			l1.899,0.567c0.059,0.958,0.05,1.395-0.029,2.249l0.835,0.517L112.152,164.665z M108.444,168.027l-0.438,0.724l4.35,2.692
			l0.438-0.725L108.444,168.027z"/>
	</g>
	<g>
		<linearGradient id="SVGID_1_" gradientUnits="userSpaceOnUse" x1="196.1826" y1="164.1304" x2="201.2417" y2="164.1304">
			<stop  offset="0.3398" style="stop-color:#FFFFFF"/>
			<stop  offset="1" style="stop-color:#FFFFFF;stop-opacity:0"/>
		</linearGradient>
		<path fill="url(#SVGID_1_)" stroke="#29ABE2" stroke-width="2.7654" stroke-miterlimit="10" d="M201.242,165.253
			c0,0-4.039,1.692-4.745-0.847c-0.705-2.542-0.003-1.87-0.003-1.87"/>
		<linearGradient id="SVGID_2_" gradientUnits="userSpaceOnUse" x1="194.4229" y1="159.0664" x2="199.4282" y2="159.0664">
			<stop  offset="0.3398" style="stop-color:#FFFFFF"/>
			<stop  offset="1" style="stop-color:#FFFFFF;stop-opacity:0"/>
		</linearGradient>
		<path fill="url(#SVGID_2_)" stroke="#29ABE2" stroke-width="2.7654" stroke-miterlimit="10" d="M198.825,162.536
			c0,0-3.743,0.18-4.296-2.414c-0.558-2.598,1.243-3.861,1.59-4.166c0.346-0.305,1.827-0.919,3.31,0.801"/>
		<linearGradient id="SVGID_3_" gradientUnits="userSpaceOnUse" x1="197.6948" y1="158.2441" x2="210.1616" y2="158.2441">
			<stop  offset="0.3398" style="stop-color:#FFFFFF"/>
			<stop  offset="1" style="stop-color:#FFFFFF;stop-opacity:0"/>
		</linearGradient>
		<path fill="url(#SVGID_3_)" stroke="#29ABE2" stroke-width="2.7654" stroke-miterlimit="10" d="M197.695,157.761
			c0,0,2.245-0.844,2.768-2.211c-0.652-1.157-1.309-4.181-1.12-5.364c0.192-1.183,2.288-2.437,3.529-0.917
			c0.437,1.648,1.082,3.566,1.546,4.212c0.464,0.644,1.75,0.744,1.75,0.744s4.51,2.221,3.945,6.874
			c-0.563,4.655-6.176,6.704-7.238,6.752c-1.059,0.049-2.526,0.542-3.062-2.005"/>
	</g>
	<g>
		<linearGradient id="SVGID_4_" gradientUnits="userSpaceOnUse" x1="101.9243" y1="196.5854" x2="104.9624" y2="196.5854">
			<stop  offset="0.3398" style="stop-color:#FFFFFF"/>
			<stop  offset="1" style="stop-color:#FFFFFF;stop-opacity:0"/>
		</linearGradient>
		<path fill="url(#SVGID_4_)" stroke="#29ABE2" stroke-width="2.7654" stroke-miterlimit="10" d="M101.924,196.086
			c0,0,0.802,1.554,3.038,0.786"/>
		<linearGradient id="SVGID_5_" gradientUnits="userSpaceOnUse" x1="99.9536" y1="194.3428" x2="111.127" y2="194.3428">
			<stop  offset="0.3398" style="stop-color:#FFFFFF"/>
			<stop  offset="1" style="stop-color:#FFFFFF;stop-opacity:0"/>
		</linearGradient>
		<path fill="url(#SVGID_5_)" stroke="#29ABE2" stroke-width="2.7654" stroke-miterlimit="10" d="M106.405,190.201
			c0,0-0.274,5.147,2.273,4.923c2.542-0.228,2.49-4.714,2.432-5.249c-0.053-0.536-1.321-4.707-4.512-3.753
			c-3.192,0.95-4.195,3.948-4.195,3.948s-4.387,4.078-1.418,9.015c1.811,3.007,4.581,3.62,4.581,3.62"/>
		<linearGradient id="SVGID_6_" gradientUnits="userSpaceOnUse" x1="106.2539" y1="195.209" x2="120.1235" y2="195.209">
			<stop  offset="0.3398" style="stop-color:#FFFFFF"/>
			<stop  offset="1" style="stop-color:#FFFFFF;stop-opacity:0"/>
		</linearGradient>
		<path fill="url(#SVGID_6_)" stroke="#29ABE2" stroke-width="2.7654" stroke-miterlimit="10" d="M111.11,189.875
			c0,0,2.421-0.229,3.626-0.143c1.204,0.087,2.823,0.427,4.043,1.471c2.934,2.511,0.257,3.845-0.448,4.01
			c-0.956,0.222-4.763-0.077-4.763-0.077s2.054,2.544,1.049,3.865c-1.008,1.322-1.527,1.985-3.075,1.592
			c-1.551-0.394-3.063-1.289-4.533-2.718c-1.469-1.429-0.429-2.906,0.057-3.523"/>
		<linearGradient id="SVGID_7_" gradientUnits="userSpaceOnUse" x1="110.4097" y1="194.8359" x2="112.0308" y2="194.8359">
			<stop  offset="0.3398" style="stop-color:#FFFFFF"/>
			<stop  offset="1" style="stop-color:#FFFFFF;stop-opacity:0"/>
		</linearGradient>
		<path fill="url(#SVGID_7_)" stroke="#29ABE2" stroke-width="2.7654" stroke-miterlimit="10" d="M112.031,195.813
			c-0.902-1.185-1.621-1.955-1.621-1.955"/>
		<linearGradient id="SVGID_8_" gradientUnits="userSpaceOnUse" x1="104.8457" y1="200.8369" x2="111.8149" y2="200.8369">
			<stop  offset="0.3398" style="stop-color:#FFFFFF"/>
			<stop  offset="1" style="stop-color:#FFFFFF;stop-opacity:0"/>
		</linearGradient>
		<path fill="url(#SVGID_8_)" stroke="#29ABE2" stroke-width="2.7654" stroke-miterlimit="10" d="M106.823,197.676
			c0,0-1.852,0.601-1.9,1.672c-0.051,1.071-0.545,2.234,1.813,3.844c2.353,1.61,4.172,0.336,4.181,0.204
			c0.008-0.135,1.08-0.62,0.871-2.748"/>
	</g>
	
		<line fill="#29ABE2" stroke="#29ABE2" stroke-width="2.7654" stroke-miterlimit="10" x1="94.182" y1="142.223" x2="75.551" y2="127.603"/>
	
		<line fill="#29ABE2" stroke="#29ABE2" stroke-width="2.7654" stroke-miterlimit="10" x1="210.161" y1="217.073" x2="224.738" y2="210.463"/>
	
		<line fill="#29ABE2" stroke="#29ABE2" stroke-width="2.7654" stroke-miterlimit="10" x1="145.108" y1="222.686" x2="139.942" y2="213.769"/>
	
		<line fill="#29ABE2" stroke="#29ABE2" stroke-width="2.7654" stroke-miterlimit="10" x1="115.976" y1="217.073" x2="105.541" y2="213.769"/>
	
		<line fill="#29ABE2" stroke="#29ABE2" stroke-width="2.7654" stroke-miterlimit="10" x1="115.976" y1="136.772" x2="111.22" y2="124.426"/>
	
		<line fill="#29ABE2" stroke="#29ABE2" stroke-width="2.7654" stroke-miterlimit="10" x1="82.96" y1="203.999" x2="69.164" y2="198.894"/>
	
		<line fill="#29ABE2" stroke="#29ABE2" stroke-width="2.7654" stroke-miterlimit="10" x1="253.222" y1="165.007" x2="268.112" y2="159.902"/>
	
		<line fill="#29ABE2" stroke="#29ABE2" stroke-width="2.7654" stroke-miterlimit="10" x1="257.107" y1="158.245" x2="264.228" y2="151.283"/>
	
		<line fill="#29ABE2" stroke="#29ABE2" stroke-width="2.7654" stroke-miterlimit="10" x1="220.291" y1="136.772" x2="224.738" y2="129.463"/>
	
		<line fill="#29ABE2" stroke="#29ABE2" stroke-width="2.7654" stroke-miterlimit="10" x1="149.608" y1="174.866" x2="149.608" y2="167.92"/>
	
		<line fill="#29ABE2" stroke="#29ABE2" stroke-width="2.7654" stroke-miterlimit="10" x1="194.422" y1="197.085" x2="201.242" y2="189.713"/>
	
		<line fill="#29ABE2" stroke="#29ABE2" stroke-width="2.7654" stroke-miterlimit="10" x1="203.929" y1="133.117" x2="203.929" y2="129.463"/>
	<path fill="none" stroke="#000000" stroke-width="0.6941" stroke-miterlimit="10" d="M396.412,50.602l-66.936,26.581
		c0,0-2.471,1.308-2.471,10.072c0,8.766,4.587,125.652,4.587,125.652s-0.83,8.673,3.354,9.089
		c4.183,0.416,28.687,8.529,28.687,8.529"/>
</g>
</svg>
