<?xml version="1.0" encoding="utf-8"?>
<!-- Generator: Adobe Illustrator 16.0.0, SVG Export Plug-In . SVG Version: 6.00 Build 0)  -->
<!DOCTYPE svg PUBLIC "-//W3C//DTD SVG 1.1//EN" "http://www.w3.org/Graphics/SVG/1.1/DTD/svg11.dtd">
<svg version="1.1" id="Layer_1" xmlns="http://www.w3.org/2000/svg" xmlns:xlink="http://www.w3.org/1999/xlink" x="0px" y="0px"
	 width="200px" height="200px" viewBox="0 0 200 200" enable-background="new 0 0 200 200" xml:space="preserve">
<path fill="#3FA9F5" d="M71.041,123.5c0,0-12.34,0-23.041,0c-4.934,0-20-6.5-19.5-21.5S42.882,81.99,45,81
	c0.361-0.174-3-11.5,4-16.5s14.957-3.861,16.661-3.5c0.419,0.081,8.054-19,41.196-16.75c33.142,2.25,36.096,36.924,36.643,38.914
	c1.339-0.151,25,0,28,20.336c1.83,12.405-11.936,18.186-18.674,18.186c-10.694,0-24.865,0-24.865,0s0,16.857,0,21.279
	c0.198,0,14.241,0.024,25.098-0.023c2.164,0,4.354-0.161,6.481-0.533c9.833-1.631,18.026-6.297,24.323-14.023
	c7.553-9.264,10.346-19.91,8.531-31.724c-1.106-7.134-4.052-13.488-8.694-19.004c-7.017-8.321-16.025-13.034-26.872-14.175
	c-0.418-0.046-0.582-0.198-0.721-0.582c-1.224-3.411-2.748-6.657-4.574-9.776c-6.518-11.032-15.605-19.249-27.303-24.486
	c-11.578-5.155-23.629-6.413-36.06-3.968c-6.57,1.292-12.714,3.689-18.475,7.087C61.141,36.843,56.778,42,55.79,43.08
	c-0.163,0.197-0.501,0.326-0.774,0.337c-1.717,0.104-3.457,0.058-5.162,0.256c-4.969,0.628-9.421,2.583-13.25,5.784
	c-5.766,4.865-8.996,11.08-9.578,18.632c-0.029,0.268-0.239,0.628-0.466,0.756c-4.306,2.583-8.047,5.819-11.096,9.787
	C9.29,86.674,6.491,95.774,7.16,105.91c0.46,7.135,2.665,13.71,6.767,19.562c8.054,11.439,19.161,17.327,33.174,17.457
	c10.741,0.104,23.679,0.022,23.94,0.022C71.058,138.498,71.041,123.5,71.041,123.5z"/>
<path fill="#3FA9F5" d="M99.966,190.667l-31.305-30.351h22.432V94.165h17.802v66.06h22.437L99.966,190.667z"/>
</svg>
