<?xml version="1.0" encoding="utf-8"?>
<!-- Generator: Adobe Illustrator 16.0.0, SVG Export Plug-In . SVG Version: 6.00 Build 0)  -->
<!DOCTYPE svg PUBLIC "-//W3C//DTD SVG 1.1//EN" "http://www.w3.org/Graphics/SVG/1.1/DTD/svg11.dtd">
<svg version="1.1" id="Layer_1" xmlns="http://www.w3.org/2000/svg" xmlns:xlink="http://www.w3.org/1999/xlink" x="0px" y="0px"
	 width="200px" height="200px" viewBox="0 0 200 200" enable-background="new 0 0 200 200" xml:space="preserve">
<g>
	<path fill="#D3D3D3" d="M80.058,129.677c-0.297,0-0.547,0-0.786,0c-10.713,0-21.425,0-32.126,0c-4.934,0-9.549-1.198-13.791-3.725
		c-9.369-5.587-14.419-16.084-12.679-26.884c1.355-8.588,5.993-15.036,13.61-19.271c2.037-1.129,4.207-2.048,6.325-3.038
		c0.361-0.174,0.489-0.384,0.419-0.768c-0.169-1.141-0.262-2.27-0.489-3.41c-0.669-3.515-0.18-6.854,1.845-9.834
		c3.032-4.457,7.274-6.517,12.679-5.946c1.729,0.187,3.445,0.605,5.149,0.966c0.419,0.081,0.635,0,0.885-0.326
		c1.705-2.036,3.345-4.131,5.161-6.075c5.051-5.446,11.114-9.415,18.114-11.906c7.303-2.607,14.809-3.339,22.484-2.21
		c6.261,0.919,12.103,3.025,17.433,6.377c10.474,6.598,17.352,15.885,20.598,27.837c0.536,1.955,1.094,3.899,1.641,5.889
		c1.338-0.151,2.642-0.244,3.922-0.477c3.212-0.535,6.354-0.256,9.45,0.582c12.581,3.457,20.646,14.861,19.622,27.837
		c-0.535,7.134-3.596,13.081-8.938,17.782c-5.063,4.469-11.021,6.609-17.76,6.609c-10.694,0-21.413,0-32.12,0
		c-0.256,0-0.5,0-0.745,0c0,4.48,0,8.857,0,13.279c0.198,0,0.361,0,0.512,0c10.87,0,21.728,0.024,32.585-0.023
		c2.165,0,4.353-0.163,6.482-0.535c9.833-1.629,18.026-6.296,24.323-14.023c7.553-9.264,10.346-19.911,8.531-31.724
		c-1.106-7.134-4.05-13.488-8.694-19.004c-7.017-8.321-16.025-13.034-26.872-14.175c-0.418-0.046-0.582-0.198-0.721-0.582
		c-1.222-3.411-2.747-6.657-4.574-9.776c-6.517-11.032-15.606-19.249-27.302-24.486c-11.579-5.155-23.63-6.413-36.059-3.968
		c-6.57,1.292-12.714,3.689-18.475,7.087c-5.208,3.096-9.828,6.866-13.907,11.324c-0.163,0.197-0.501,0.326-0.774,0.337
		c-1.717,0.104-3.457,0.058-5.162,0.256c-4.969,0.628-9.421,2.583-13.25,5.784c-5.766,4.865-8.996,11.08-9.578,18.632
		c-0.029,0.268-0.239,0.628-0.466,0.756c-4.306,2.583-8.047,5.819-11.096,9.787c-6.174,8.042-8.973,17.142-8.304,27.278
		c0.46,7.135,2.665,13.71,6.767,19.563c8.054,11.44,19.161,17.328,33.174,17.457c10.741,0.104,21.477,0.023,32.202,0.023
		c0.238,0,0.477,0,0.738,0C80.058,138.498,80.058,134.134,80.058,129.677z M99.97,182.604c8.775-8.774,17.573-17.573,26.395-26.406
		c-6.54,0-13.116,0-19.731,0c0-17.724,0-35.366,0-53.033c-4.446,0-8.828,0-13.285,0c0,17.7,0,35.366,0,53.103
		c-6.627,0-13.18,0-19.726,0C82.444,165.078,91.225,173.876,99.97,182.604z"/>
	<path fill="#D3D3D3" d="M80.05,129.677c0,4.457,0,8.821,0,13.278c-0.25,0-0.501,0-0.739,0c-10.724,0-21.46,0.08-32.201-0.023
		c-14.012-0.14-25.12-6.017-33.174-17.457c-4.114-5.854-6.319-12.429-6.767-19.563c-0.669-10.136,2.13-19.236,8.304-27.278
		c3.048-3.968,6.79-7.204,11.096-9.787c0.227-0.128,0.437-0.489,0.465-0.745c0.583-7.576,3.812-13.791,9.578-18.644
		c3.829-3.212,8.286-5.167,13.255-5.784c1.711-0.21,3.439-0.163,5.156-0.256c0.261-0.012,0.611-0.14,0.773-0.337
		c4.079-4.47,8.699-8.228,13.907-11.324c5.749-3.387,11.905-5.784,18.475-7.087c12.429-2.444,24.468-1.187,36.059,3.968
		c11.708,5.237,20.785,13.454,27.302,24.486c1.838,3.119,3.352,6.377,4.585,9.776c0.117,0.383,0.292,0.535,0.722,0.582
		c10.846,1.152,19.831,5.854,26.859,14.175c4.656,5.505,7.588,11.871,8.683,19.004c1.827,11.813-0.978,22.46-8.519,31.724
		c-6.284,7.739-14.489,12.406-24.323,14.023c-2.13,0.372-4.306,0.524-6.482,0.535c-10.858,0.048-21.728,0.023-32.574,0.023
		c-0.163,0-0.326,0-0.536,0c0-4.422,0-8.799,0-13.279c0.256,0,0.512,0,0.756,0c10.719,0,21.426,0,32.132,0
		c6.726,0,12.685-2.151,17.736-6.609c5.353-4.714,8.402-10.648,8.961-17.771c1-12.988-7.064-24.393-19.633-27.849
		c-3.108-0.838-6.25-1.117-9.45-0.582c-1.269,0.233-2.595,0.314-3.922,0.477c-0.547-1.99-1.117-3.934-1.629-5.889
		c-3.27-11.952-10.125-21.239-20.61-27.837c-5.342-3.352-11.184-5.458-17.433-6.377c-7.675-1.129-15.17-0.396-22.485,2.21
		c-6.988,2.491-13.052,6.459-18.114,11.906c-1.815,1.943-3.457,4.026-5.162,6.075c-0.25,0.314-0.477,0.407-0.884,0.326
		c-1.705-0.35-3.421-0.768-5.144-0.966c-5.412-0.571-9.653,1.49-12.685,5.946c-2.025,2.979-2.514,6.319-1.845,9.834
		c0.215,1.141,0.308,2.27,0.489,3.421c0.058,0.373-0.058,0.583-0.419,0.757c-2.13,0.99-4.289,1.909-6.325,3.038
		c-7.617,4.235-12.255,10.683-13.61,19.271c-1.74,10.812,3.311,21.309,12.679,26.884c4.23,2.536,8.856,3.725,13.791,3.725
		c10.701,0,21.413,0,32.126,0C79.514,129.677,79.753,129.677,80.05,129.677z"/>
	<path fill="#D3D3D3" d="M99.977,182.604c-8.745-8.729-17.526-17.526-26.349-26.337c6.547,0,13.1,0,19.727,0
		c0-17.736,0-35.39,0-53.103c4.457,0,8.839,0,13.285,0c0,17.667,0,35.31,0,53.033c6.615,0,13.191,0,19.731,0
		C117.549,165.031,108.752,173.83,99.977,182.604z"/>
</g>
</svg>
