<?xml version="1.0" encoding="utf-8"?>
<!-- Generator: Adobe Illustrator 16.0.0, SVG Export Plug-In . SVG Version: 6.00 Build 0)  -->
<!DOCTYPE svg PUBLIC "-//W3C//DTD SVG 1.1//EN" "http://www.w3.org/Graphics/SVG/1.1/DTD/svg11.dtd">
<svg version="1.1" id="Layer_1" xmlns="http://www.w3.org/2000/svg" xmlns:xlink="http://www.w3.org/1999/xlink" x="0px" y="0px"
	 width="200px" height="200px" viewBox="0 0 200 200" enable-background="new 0 0 200 200" xml:space="preserve">
<g>
	<g>
		
			<text transform="matrix(1.0796 0 0 1 79.623 155.9668)" fill="none" stroke="#000000" stroke-width="1.6362" stroke-miterlimit="10" font-family="'Avenir-Roman'" font-size="61.2421">$</text>
	</g>
</g>
<path fill="none" stroke="#000000" stroke-width="2" stroke-miterlimit="10" d="M164.5,163.894c0,11.046-8.954,20-20,20h-93
	c-11.046,0-20-8.954-20-20v-59c0-11.046,8.954-20,20-20h15.646H144.5c11.046,0,20,8.954,20,20V163.894z"/>
<path fill="none" stroke="#000000" stroke-width="2" stroke-miterlimit="10" d="M67.5,84.894V58.228c0,0-0.167-31,32.841-31
	c28.836,0,30.159,30.334,30.159,30.334v27.332"/>
<path fill="none" stroke="#000000" stroke-width="2" stroke-miterlimit="10" d="M53.5,84.894v-17c0,0-6.333-53.333,48.667-53.333
	c49,0,43,53.667,43,53.667L144.5,84.894"/>
<rect x="55.499" y="130.895" transform="matrix(0.7577 0.6527 -0.6527 0.7577 111.5845 -31.7164)" fill="#FFFFFF" stroke="#000000" stroke-width="2" stroke-miterlimit="10" width="86.001" height="7"/>
</svg>
