<?xml version="1.0" encoding="utf-8"?>
<!-- Generator: Adobe Illustrator 16.0.0, SVG Export Plug-In . SVG Version: 6.00 Build 0)  -->
<!DOCTYPE svg PUBLIC "-//W3C//DTD SVG 1.1//EN" "http://www.w3.org/Graphics/SVG/1.1/DTD/svg11.dtd">
<svg version="1.1" id="Layer_1" xmlns="http://www.w3.org/2000/svg" xmlns:xlink="http://www.w3.org/1999/xlink" x="0px" y="0px"
	 width="200px" height="200px" viewBox="0 0 200 200" enable-background="new 0 0 200 200" xml:space="preserve">
<g>
	<g>
		<path fill="none" stroke="#000000" stroke-width="1.6362" stroke-miterlimit="10" d="M176.757,136.456c0,0-2.269,4.031-8.167,1.81
			"/>
		<path fill="none" stroke="#000000" stroke-width="1.6362" stroke-miterlimit="10" d="M165.317,120.55
			c0,0,0.293,13.604-6.472,12.787c-6.758-0.816-6.239-12.639-6.042-14.05c0.188-1.412,3.922-12.302,12.349-9.514
			c8.429,2.789,10.84,10.776,10.84,10.776s11.346,11.134,3.011,23.894c-5.081,7.778-12.514,9.155-12.514,9.155"/>
		<path fill="none" stroke="#000000" stroke-width="1.6362" stroke-miterlimit="10" d="M152.803,119.287
			c0,0-6.428-0.811-9.649-0.688c-3.22,0.121-7.562,0.885-10.897,3.531c-8.035,6.365-1.013,10.12,0.848,10.613
			c2.531,0.669,12.7,0.202,12.7,0.202s-5.688,6.535-3.123,10.107c2.572,3.572,3.898,5.368,8.062,4.464
			c4.166-0.905,8.268-3.135,12.309-6.78c4.038-3.639,1.39-7.629,0.145-9.296"/>
		<path fill="none" stroke="#000000" stroke-width="1.6362" stroke-miterlimit="10" d="M149.845,134.87
			c2.505-3.053,4.487-5.017,4.487-5.017"/>
		<path fill="none" stroke="#000000" stroke-width="1.6362" stroke-miterlimit="10" d="M163.564,140.23c0,0,4.889,1.741,4.926,4.571
			c0.04,2.828,1.262,5.941-5.159,9.979c-6.411,4.052-11.15,0.527-11.164,0.176c-0.013-0.351-2.826-1.722-2.086-7.318"/>
	</g>
	<g>
		<path fill="none" stroke="#000000" stroke-width="1.6362" stroke-miterlimit="10" d="M171.558,51.594
			c0,0,11.661-0.432,11.094,6.503c-0.567,6.939-1.708,4.63-1.708,4.63"/>
		<path fill="none" stroke="#000000" stroke-width="1.6362" stroke-miterlimit="10" d="M175.113,60.553c0,0,9.527,3.04,8.531,9.973
			c-0.993,6.941-6.661,8.393-7.809,8.824c-1.145,0.433-5.415,0.575-7.548-5.063"/>
		<path fill="none" stroke="#000000" stroke-width="1.6362" stroke-miterlimit="10" d="M173.55,73.415c0,0-6.397,0-8.956,2.897
			c0.567,3.47-0.571,11.558-2.13,14.306c-1.566,2.748-7.963,3.903-9.672-1.013c0.422-4.476,0.567-9.823,0-11.849
			c-0.571-2.025-3.7-3.471-3.7-3.471s-9.24-9.683-3.555-20.667c5.691-10.991,21.615-10.843,24.319-9.972
			c2.694,0.864,6.823,1.006,5.82,7.805"/>
	</g>
	<path fill="none" stroke="#000000" stroke-width="1.6362" stroke-miterlimit="10" d="M50.709,63.957
		c0,9.675-7.707,17.499-17.21,17.499c-9.51,0-17.217-7.824-17.217-17.499c0-9.662,7.707-17.494,17.217-17.494
		C43.002,46.463,50.709,54.295,50.709,63.957z"/>
	<path fill="none" stroke="#000000" stroke-width="1.6362" stroke-miterlimit="10" d="M50.709,127.152
		c0,9.669-7.707,17.501-17.21,17.501c-9.51,0-17.217-7.832-17.217-17.501c0-9.661,7.707-17.5,17.217-17.5
		C43.002,109.652,50.709,117.491,50.709,127.152z"/>
	<line fill="none" stroke="#000000" stroke-width="2" stroke-miterlimit="10" x1="64" y1="126" x2="109" y2="126"/>
	<line fill="none" stroke="#000000" stroke-width="2" stroke-miterlimit="10" x1="64" y1="139" x2="102" y2="139"/>
	<line fill="none" stroke="#000000" stroke-width="2" stroke-miterlimit="10" x1="68" y1="67" x2="102" y2="67"/>
	<line fill="none" stroke="#000000" stroke-width="2" stroke-miterlimit="10" x1="68" y1="80" x2="123" y2="80"/>
	<path d="M40.777,64.287c0,4.099-3.271,7.42-7.302,7.42c-4.027,0-7.298-3.321-7.298-7.42c0-4.091,3.271-7.421,7.298-7.421
		C37.507,56.866,40.777,60.196,40.777,64.287z"/>
</g>
</svg>
