<?xml version="1.0" encoding="utf-8"?>
<!-- Generator: Adobe Illustrator 16.0.0, SVG Export Plug-In . SVG Version: 6.00 Build 0)  -->
<!DOCTYPE svg PUBLIC "-//W3C//DTD SVG 1.1//EN" "http://www.w3.org/Graphics/SVG/1.1/DTD/svg11.dtd">
<svg version="1.1" id="Layer_1" xmlns="http://www.w3.org/2000/svg" xmlns:xlink="http://www.w3.org/1999/xlink" x="0px" y="0px"
	 width="200px" height="200px" viewBox="0 0 200 200" enable-background="new 0 0 200 200" xml:space="preserve">
<g>
	<path fill="none" stroke="#000000" stroke-width="2" stroke-miterlimit="10" d="M190,114.557c0,0,0.795,11.443-3.173,11.443H44.93
		C40.958,126,29,117.969,29,114.557V70.588c0,0,5.806-7.588,15.93-7.588h141.897c3.968,3,3.173,7.588,3.173,7.588V114.557z"/>
	<path fill="#FFFFFF" stroke="#000000" stroke-width="1.6362" stroke-miterlimit="10" d="M80.118,118.092
		c0,9.242-7.489,16.727-16.731,16.727c-9.235,0-16.731-7.484-16.731-16.727s7.496-16.734,16.731-16.734
		C72.629,101.357,80.118,108.85,80.118,118.092z"/>
	<path fill="#FFFFFF" stroke="#000000" stroke-width="1.6362" stroke-miterlimit="10" d="M180.542,121.264
		c0,9.229-7.496,16.727-16.734,16.727s-16.728-7.498-16.728-16.727c0-9.25,7.489-16.734,16.728-16.734
		S180.542,112.014,180.542,121.264z"/>
	<path fill="none" stroke="#000000" stroke-width="2" stroke-miterlimit="10" d="M191,94h-14.061c0,0-7.837-3.235-9.02-4.698
		c-1.186-1.471-5.919-6.716-5.919-6.716V62"/>
	<g>
		<path fill="none" stroke="#000000" stroke-width="2" stroke-miterlimit="10" d="M152,90.482c0,1.942-1.575,3.518-3.517,3.518
			h-11.966c-1.942,0-3.517-1.575-3.517-3.518V75.518c0-1.942,1.575-3.518,3.517-3.518h11.966c1.942,0,3.517,1.575,3.517,3.518
			V90.482z"/>
	</g>
	<g>
		<path fill="none" stroke="#000000" stroke-width="2" stroke-miterlimit="10" d="M124,90.482c0,1.942-1.575,3.518-3.517,3.518
			h-11.966c-1.942,0-3.517-1.575-3.517-3.518V75.518c0-1.942,1.575-3.518,3.517-3.518h11.966c1.942,0,3.517,1.575,3.517,3.518
			V90.482z"/>
	</g>
	<g>
		<path fill="none" stroke="#000000" stroke-width="2" stroke-miterlimit="10" d="M96,90.482C96,92.425,94.425,94,92.482,94H80.518
			C78.575,94,77,92.425,77,90.482V75.518C77,73.575,78.575,72,80.518,72h11.965C94.425,72,96,73.575,96,75.518V90.482z"/>
	</g>
	<g>
		<path fill="none" stroke="#000000" stroke-width="2" stroke-miterlimit="10" d="M68,90.482C68,92.425,66.425,94,64.483,94H52.517
			C50.575,94,49,92.425,49,90.482V75.518C49,73.575,50.575,72,52.517,72h11.966C66.425,72,68,73.575,68,75.518V90.482z"/>
	</g>
	<line fill="none" stroke="#000000" stroke-width="2" stroke-miterlimit="10" x1="19" y1="76" x2="19" y2="111"/>
	<line fill="none" stroke="#000000" stroke-width="2" stroke-miterlimit="10" x1="8" y1="83" x2="8" y2="101"/>
</g>
</svg>
