<?xml version="1.0" encoding="utf-8"?>
<!-- Generator: Adobe Illustrator 16.0.0, SVG Export Plug-In . SVG Version: 6.00 Build 0)  -->
<!DOCTYPE svg PUBLIC "-//W3C//DTD SVG 1.1//EN" "http://www.w3.org/Graphics/SVG/1.1/DTD/svg11.dtd">
<svg version="1.1" id="Layer_1" xmlns="http://www.w3.org/2000/svg" xmlns:xlink="http://www.w3.org/1999/xlink" x="0px" y="0px"
	 width="200px" height="200px" viewBox="0 0 200 200" enable-background="new 0 0 200 200" xml:space="preserve">
<g>
	<g>
		<path fill-rule="evenodd" clip-rule="evenodd" fill="none" stroke="#000000" stroke-width="1.6362" stroke-miterlimit="10" d="
			M17.402,81.354c0-14.719,1.542-29.438,1.362-44.147c-0.032-3.341,1.344-4.39,5.485-4.445c16.579-0.257,33.064-1.326,48.818-6.02
			c9.854-2.927,19.014-6.638,24.904-14.13c1.481-1.896,3.769-1.896,5.298-0.056c8.556,10.394,21.921,14.48,36.022,16.717
			c19.437,3.085,32.503,3.085,38.09,3.452c3.939,0.275,5.22,1.215,5.215,4.346c-0.11,28.967-0.014,57.943-0.101,86.912
			c-0.023,10.63-6.182,19.338-14.388,27.19c-14.429,13.808-32.729,23.675-52.394,31.876c-18.425,7.696-11.687,7.668-29.931,0.055
			c-19.666-8.201-37.942-18.059-52.439-31.83c-9.62-9.121-13.551-19.357-14.627-31.683C17.402,104.513,17.402,94.094,17.402,81.354z
			"/>
		<path fill-rule="evenodd" clip-rule="evenodd" fill="none" stroke="#000000" stroke-width="1.6362" stroke-miterlimit="10" d="
			M100.19,139.566c11.994-13.137,20.509-29.788,35.753-38.901c4.188,3.819,4.151,3.848,0.33,7.54
			c-14.456,13.973-26.445,29.64-34.969,47.634c-0.175,0.38-0.456,0.701-0.456,0.701c-9.604-8.763-19.201-17.518-29.229-26.658
			c2.747-2.329,4.947-4.409,7.424-6.14c0.584-0.415,2.297,0.046,3.092,0.617C86.591,127.543,95.635,136.123,100.19,139.566z"/>
		
			<text transform="matrix(1.1111 0 0 1 46.2803 90.1309)" fill="none" stroke="#000000" stroke-width="1.6362" stroke-miterlimit="10" font-family="'KozGoPr6N-Bold-83pv-RKSJ-H'" font-size="53.1586">HSK</text>
	</g>
</g>
</svg>
