<?xml version="1.0" encoding="utf-8"?>
<!-- Generator: Adobe Illustrator 16.0.0, SVG Export Plug-In . SVG Version: 6.00 Build 0)  -->
<!DOCTYPE svg PUBLIC "-//W3C//DTD SVG 1.1//EN" "http://www.w3.org/Graphics/SVG/1.1/DTD/svg11.dtd">
<svg version="1.1" id="Layer_1" xmlns="http://www.w3.org/2000/svg" xmlns:xlink="http://www.w3.org/1999/xlink" x="0px" y="0px"
	 width="200px" height="200px" viewBox="0 0 200 200" enable-background="new 0 0 200 200" xml:space="preserve">
<g id="_x36_8PU0z.tif">
	<g>
		<path fill-rule="evenodd" clip-rule="evenodd" fill="none" stroke="#000000" stroke-width="1.6362" stroke-miterlimit="10" d="
			M77.192,170.169c6.258-9.465,12.571-18.898,18.857-28.341c0.422-0.644,0.813-1.31,1.398-2.239c-1.097,0-5.918,0-6.693,0
			c-22.149,0-52.227,0-74.379-0.008c-5.465,0-5.364,0.047-5.364-5.445c0.004-39.542,0-52.68,0.004-94.926
			c0-5.499-0.094-9.403,5.368-9.403c54.793,0,109.584,0,164.379,0c5.65,0,8.226,2.504,8.226,6.474s-2.715,7.36-7.931,7.36
			c-47.92,0.009-95.836,0.009-143.752,0.009c-0.868,0-1.754,0.015-2.595-0.163"/>
		<path fill-rule="evenodd" clip-rule="evenodd" fill="none" stroke="#000000" stroke-width="1.6362" stroke-miterlimit="10" d="
			M186.292,59.319c-0.012,14.547-0.004,29.101-0.004,43.646c0,11.558-0.008,21.76-0.008,30.612c0,6.274,0.302,6.003-5.895,6.011
			c-22.076,0-48.122,0-70.197,0c-0.693,0-5.445,0-6.545,0c1.41,2.123,2.583,3.912,3.772,5.693
			c5.534,8.304,11.069,16.615,16.606,24.911"/>
		<path fill-rule="evenodd" clip-rule="evenodd" fill="none" stroke="#000000" stroke-width="1.6362" stroke-miterlimit="10" d="
			M88.392,82.186c-8.927,7.436-17.653,14.701-26.375,21.974c-3.334,2.773-6.657,5.577-10.008,8.335
			c-3.45,2.843-7.622,2.61-10.228-0.503c-2.606-3.122,0.601-5.934,4.027-8.8C59.36,91.867,72.931,80.573,86.505,69.288
			c3.637-3.021,3.18-1.449,6.534,1.912c7.002,7.026,14.005,14.044,21.011,21.062c0.5,0.502,3.737-0.381,4.373,0.208
			c5.349-4.438,10.627-8.822,15.898-13.214c6.786-5.647,13.56-11.31,20.353-16.948c3.551-2.943,6.395-4.066,9.031-0.836
			c2.538,3.113,0.605,5.925-2.842,8.807c-13.555,11.309-27.122,22.609-40.705,33.896c-3.548,2.951-5.724,4.074-9.047,0.76
			C103.589,97.412,96.08,89.884,88.392,82.186z"/>
	</g>
</g>
</svg>
