<?xml version="1.0" encoding="utf-8"?>
<!-- Generator: Adobe Illustrator 16.0.0, SVG Export Plug-In . SVG Version: 6.00 Build 0)  -->
<!DOCTYPE svg PUBLIC "-//W3C//DTD SVG 1.1//EN" "http://www.w3.org/Graphics/SVG/1.1/DTD/svg11.dtd">
<svg version="1.1" id="Layer_1" xmlns="http://www.w3.org/2000/svg" xmlns:xlink="http://www.w3.org/1999/xlink" x="0px" y="0px"
	 width="200px" height="200px" viewBox="0 0 200 200" enable-background="new 0 0 200 200" xml:space="preserve">
<g>
	<g>
		
			<line fill="none" stroke="#000000" stroke-width="1.6362" stroke-miterlimit="10" x1="126.805" y1="84.67" x2="127.239" y2="86.711"/>
		<path fill="none" stroke="#000000" stroke-width="1.6362" stroke-miterlimit="10" d="M130.883,172.849
			c-2.344,3.88-7.387,5.114-11.26,2.774l-62.74-37.966c-3.869-2.348-5.114-7.388-2.766-11.261l60.116-99.341
			c2.344-3.873,7.386-5.114,11.259-2.767l62.74,37.967c3.874,2.347,5.115,7.386,2.767,11.26L130.883,172.849z"/>
		
			<text transform="matrix(0.8555 0.5178 -0.5178 0.8555 98.5327 66.2852)" font-family="'KozGoPr6N-Bold-83pv-RKSJ-H'" font-size="38.6257">大公</text>
		
			<line fill="none" stroke="#000000" stroke-width="1.6362" stroke-miterlimit="10" x1="91.938" y1="82.03" x2="150.854" y2="117.687"/>
		
			<line fill="none" stroke="#000000" stroke-width="1.6362" stroke-miterlimit="10" x1="84.644" y1="94.083" x2="128.386" y2="120.557"/>
		
			<line fill="none" stroke="#000000" stroke-width="1.6362" stroke-miterlimit="10" x1="77.893" y1="105.246" x2="136.808" y2="140.894"/>
		
			<line fill="none" stroke="#000000" stroke-width="1.6362" stroke-miterlimit="10" x1="70.6" y1="117.29" x2="114.341" y2="143.764"/>
	</g>
	<g>
		<path fill="#FFFFFF" stroke="#000000" stroke-width="1.6362" stroke-miterlimit="10" d="M136.846,156.953
			c-0.314,4.516-4.236,7.919-8.748,7.612l-73.158-5.101c-4.516-0.312-7.926-4.231-7.611-8.747l8.067-115.827
			c0.314-4.524,4.232-7.926,8.751-7.611l73.155,5.092c4.516,0.314,7.925,4.23,7.608,8.747L136.846,156.953z"/>
		
			<text transform="matrix(0.9976 0.0695 -0.0695 0.9976 59.3574 76.9551)" font-family="'KozGoPr6N-Bold-83pv-RKSJ-H'" font-size="38.6257">大再</text>
		
			<line fill="none" stroke="#000000" stroke-width="1.6362" stroke-miterlimit="10" x1="60.697" y1="93.979" x2="129.392" y2="98.756"/>
		
			<line fill="none" stroke="#000000" stroke-width="1.6362" stroke-miterlimit="10" x1="59.717" y1="108.026" x2="110.719" y2="111.578"/>
		
			<line fill="none" stroke="#000000" stroke-width="1.6362" stroke-miterlimit="10" x1="58.812" y1="121.035" x2="127.508" y2="125.822"/>
		
			<line fill="none" stroke="#000000" stroke-width="1.6362" stroke-miterlimit="10" x1="57.833" y1="135.093" x2="108.834" y2="138.637"/>
	</g>
	<g>
		<path fill="#FFFFFF" stroke="#000000" stroke-width="1.6362" stroke-miterlimit="10" d="M134.816,138.435
			c1.678,4.201-0.363,8.979-4.568,10.653l-68.094,27.223c-4.201,1.683-8.979-0.365-10.657-4.575L8.402,63.922
			c-1.682-4.201,0.363-8.979,4.571-10.661l68.09-27.215c4.206-1.675,8.979,0.366,10.658,4.568L134.816,138.435z"/>
		
			<text transform="matrix(0.9286 -0.3712 0.3712 0.9286 30.2593 100.0879)" font-family="'KozGoPr6N-Bold-83pv-RKSJ-H'" font-size="38.6257">大巴</text>
		
			<line fill="none" stroke="#000000" stroke-width="1.6362" stroke-miterlimit="10" x1="38.861" y1="114.83" x2="102.805" y2="89.269"/>
		
			<line fill="none" stroke="#000000" stroke-width="1.6362" stroke-miterlimit="10" x1="44.091" y1="127.907" x2="91.561" y2="108.931"/>
		
			<line fill="none" stroke="#000000" stroke-width="1.6362" stroke-miterlimit="10" x1="48.929" y1="140.019" x2="112.876" y2="114.456"/>
		
			<line fill="none" stroke="#000000" stroke-width="1.6362" stroke-miterlimit="10" x1="54.158" y1="153.096" x2="101.635" y2="134.121"/>
	</g>
</g>
</svg>
